<?xml version="1.0" standalone="no"?>
 <!DOCTYPE svg PUBLIC "-//W3C//DTD SVG 1.1//EN" 
 "http://www.w3.org/Graphics/SVG/1.1/DTD/svg11.dtd"> 
<svg
  xmlns:svg="http://www.w3.org/2000/svg"
  xmlns="http://www.w3.org/2000/svg"
  xmlns:xlink="http://www.w3.org/1999/xlink"
  version="1.1"
  width="24.759920cm" height="8.933180cm" viewBox="0 0 247599200 89331800">
<title>SVG Picture created as floppa40-brd.svg date 2022/12/19 11:32:55 </title>
  <desc>Picture generated by PCBNEW </desc>
<g style="fill:#000000; fill-opacity:1.000000;stroke:#000000; stroke-opacity:1.000000;
stroke-linecap:round; stroke-linejoin:round;"
 transform="translate(0 0) scale(1 1)">
</g>
<g style="fill:#000000; fill-opacity:0.0; 
stroke:#000000; stroke-width:0.000000; stroke-opacity:1; 
stroke-linecap:round; stroke-linejoin:round;">
</g>
<g style="fill:#000000; fill-opacity:0.0; 
stroke:#000000; stroke-width:150000.000000; stroke-opacity:1; 
stroke-linecap:round; stroke-linejoin:round;">
<circle cx="159160000.000000" cy="10911500.000000" r="3200000.000000" /> 
<circle cx="179734000.000000" cy="85333500.000000" r="3200000.000000" /> 
<circle cx="216310000.000000" cy="85079500.000000" r="3200000.000000" /> 
</g>
<g style="fill:#000000; fill-opacity:0.0; 
stroke:#000000; stroke-width:120000.000000; stroke-opacity:1; 
stroke-linecap:round; stroke-linejoin:round;">
<path d="M239768800 39240700
L243368800 39240700
" />
<path d="M244718800 50740700
L244718800 43890700
" />
<path d="M215768800 39240700
L219368800 39240700
" />
<path d="M238418800 43890700
L239768800 43890700
" />
<path d="M220718800 50740700
L220718800 43890700
" />
<path d="M238418800 50740700
L238418800 43890700
" />
<path d="M219368800 43890700
L220718800 43890700
" />
<path d="M215768800 39240700
L215768800 43890700
" />
<path d="M243368800 39240700
L243368800 43890700
" />
<path d="M214418800 50740700
L214418800 43890700
" />
<path d="M239768800 39240700
L239768800 43890700
" />
<path d="M219368800 39240700
L219368800 43890700
" />
<path d="M214418800 43890700
L215768800 43890700
" />
<path d="M243368800 43890700
L244718800 43890700
" />
<path d="M238418800 50740700
L244718800 50740700
" />
<path d="M214418800 50740700
L220718800 50740700
" />
</g>
<g style="fill:#000000; fill-opacity:0.0; 
stroke:#000000; stroke-width:150000.000000; stroke-opacity:1; 
stroke-linecap:round; stroke-linejoin:round;">
<circle cx="4474000.000000" cy="63997500.000000" r="3200000.000000" /> 
<circle cx="98454000.000000" cy="4307500.000000" r="3200000.000000" /> 
</g>
<g style="fill:#000000; fill-opacity:0.0; 
stroke:#000000; stroke-width:120000.000000; stroke-opacity:1; 
stroke-linecap:round; stroke-linejoin:round;">
<path d="M165500000 73251300
L169100000 73251300
" />
<path d="M170450000 84751300
L170450000 77901300
" />
<path d="M141500000 73251300
L145100000 73251300
" />
<path d="M164150000 77901300
L165500000 77901300
" />
<path d="M146450000 84751300
L146450000 77901300
" />
<path d="M164150000 84751300
L164150000 77901300
" />
<path d="M145100000 77901300
L146450000 77901300
" />
<path d="M141500000 73251300
L141500000 77901300
" />
<path d="M169100000 73251300
L169100000 77901300
" />
<path d="M140150000 84751300
L140150000 77901300
" />
<path d="M165500000 73251300
L165500000 77901300
" />
<path d="M145100000 73251300
L145100000 77901300
" />
<path d="M140150000 77901300
L141500000 77901300
" />
<path d="M169100000 77901300
L170450000 77901300
" />
<path d="M164150000 84751300
L170450000 84751300
" />
<path d="M140150000 84751300
L146450000 84751300
" />
</g>
<g style="fill:#000000; fill-opacity:0.0; 
stroke:#000000; stroke-width:150000.000000; stroke-opacity:1; 
stroke-linecap:round; stroke-linejoin:round;">
<circle cx="7776000.000000" cy="10403500.000000" r="3200000.000000" /> 
</g>
<g style="fill:#000000; fill-opacity:0.0; 
stroke:#000000; stroke-width:120000.000000; stroke-opacity:1; 
stroke-linecap:round; stroke-linejoin:round;">
<path d="M98000000 73251300
L101600000 73251300
" />
<path d="M102950000 84751300
L102950000 77901300
" />
<path d="M74000000 73251300
L77600000 73251300
" />
<path d="M96650000 77901300
L98000000 77901300
" />
<path d="M78950000 84751300
L78950000 77901300
" />
<path d="M96650000 84751300
L96650000 77901300
" />
<path d="M77600000 77901300
L78950000 77901300
" />
<path d="M74000000 73251300
L74000000 77901300
" />
<path d="M101600000 73251300
L101600000 77901300
" />
<path d="M72650000 84751300
L72650000 77901300
" />
<path d="M98000000 73251300
L98000000 77901300
" />
<path d="M77600000 73251300
L77600000 77901300
" />
<path d="M72650000 77901300
L74000000 77901300
" />
<path d="M101600000 77901300
L102950000 77901300
" />
<path d="M96650000 84751300
L102950000 84751300
" />
<path d="M72650000 84751300
L78950000 84751300
" />
<g >
</g>
<g >
</g>
<g >
</g>
<g >
</g>
<g >
</g>
<g >
</g>
<g >
</g>
<g >
</g>
<g >
</g>
<g >
</g>
<g >
</g>
<g >
</g>
<g >
</g>
<g >
</g>
<g >
</g>
<g >
</g>
<g >
</g>
<g >
</g>
<g >
</g>
<g >
</g>
<g >
</g>
<g >
</g>
<g >
</g>
<g >
</g>
<g >
</g>
<g >
</g>
<g >
</g>
<g >
</g>
<g >
</g>
<g >
</g>
<g >
</g>
<g >
</g>
<g >
</g>
<g >
</g>
<g >
</g>
<g >
</g>
<g >
</g>
<g >
</g>
<g >
</g>
<g >
</g>
<g >
</g>
<g >
</g>
<g >
</g>
<g >
</g>
<g >
</g>
<g >
</g>
<g >
</g>
<g >
</g>
<g >
</g>
<g >
</g>
<g >
</g>
<g >
</g>
<g >
</g>
<g >
</g>
<g >
</g>
<g >
</g>
<g >
</g>
<g >
</g>
<g >
</g>
<g >
</g>
</g>
<g style="fill:#000000; fill-opacity:0.0; 
stroke:#000000; stroke-width:120000.000000; stroke-opacity:1; 
stroke-linecap:round; stroke-linejoin:round;">
</g>
<g style="fill:#000000; fill-opacity:0.0; 
stroke:#000000; stroke-width:100000.000000; stroke-opacity:1; 
stroke-linecap:round; stroke-linejoin:round;">
<path d="M135049988.925179 36709750.633480 A1126850.000000 1126850.000000 0.0 0 0 136175000.000000 37772250.000000" />
<path d="M108050004.022658 89303429.641556 A2128500.000000 2128500.000000 0.0 0 0 110299999.997651 87178500.000000" />
<path d="M130549988.925179 70709750.633480 A1126850.000000 1126850.000000 0.0 0 0 131675000.000000 71772250.000000" />
<path d="M110299975.081328 74959751.424794 A2253650.000000 2253650.000000 0.0 0 0 108050000.000000 72834750.000000" />
<path d="M110300000 74959750
L110300000 87178500
" />
<path d="M105800000 54772250
L105800000 72834750
" />
<path d="M245300000 89303500
L137300000 89303500
" />
<path d="M50000 87178500
L50000 2178500
" />
<path d="M131675000 55303500
L139550000 55303500
" />
<path d="M139550000 55303500
L139550000 37772250
" />
<path d="M139550000 37772250
L136175000 37772250
" />
<path d="M114800005.532450 39897249.683080 A1126950.000000 1126950.000000 0.0 0 0 113675000.000000 38834750.004437" />
<path d="M130550000 70709750
L130550000 56366000
" />
<path d="M245300004.022658 89303429.641556 A2128500.000000 2128500.000000 0.0 0 0 247549999.997651 87178500.000000" />
<path d="M131675003.523149 55303438.437602 A1064200.000000 1064200.000000 0.0 0 0 130550000.004698 56366000.000000" />
<path d="M135050000 87178500
L135050000 71772250
" />
<path d="M105800000 72834750
L108050000 72834750
" />
<path d="M114800000 39897250
L114800000 53709750
" />
<path d="M49977.850357 87178501.266960 A2253700.000000 2253700.000000 0.0 0 0 2300000.000000 89303500.000000" />
<path d="M113674999.328987 54772261.725619 A1064200.000000 1064200.000000 0.0 0 0 114799999.998825 53709750.000000" />
<path d="M135049977.850357 87178501.266960 A2253700.000000 2253700.000000 0.0 0 0 137300000.000000 89303500.000000" />
<path d="M137300001.342026 53476.548763 A2128400.000000 2128400.000000 0.0 0 0 135050000.002349 2178500.000000" />
<path d="M2299999.798767 53503.518031 A2128450.000000 2128450.000000 0.0 0 0 50000.000094 2178500.000000" />
<path d="M135050000 71772250
L131675000 71772250
" />
<path d="M113675000 54772250
L105800000 54772250
" />
<path d="M247549999.997647 2178500.000000 A2125100.000000 2125100.000000 0.0 0 0 245425000.000000 53500.002353" />
<path d="M247550000 87178500
L247550000 2178500
" />
<path d="M2300000 53500
L108050000 53500
" />
<path d="M110300000 38834750
L113675000 38834750
" />
<path d="M110300000 2178500
L110300000 38834750
" />
<path d="M135050000 36709750
L135050000 2178500
" />
<path d="M108050000 89303500
L2300000 89303500
" />
<path d="M137300000 53500
L245425000 53500
" />
<path d="M110299916.935794 2178504.754542 A2253800.000000 2253800.000000 0.0 0 0 108049999.999999 53500.008874" />
</g>
<g style="fill:#000000; fill-opacity:0.0; 
stroke:#000000; stroke-width:120000.000000; stroke-opacity:1; 
stroke-linecap:round; stroke-linejoin:round;">
<path d="M238918800 44490700
L244218800 44490700
" />
<path d="M215568800 38690700
L219568800 38690700
" />
<path d="M214918800 49990700
L220218800 49990700
" />
<path d="M238918800 44490700
L238918800 49990700
" />
<path d="M243568800 42190700
L243568800 38690700
" />
<path d="M214918800 44490700
L214918800 49990700
" />
<path d="M239568800 42190700
L243568800 42190700
" />
<path d="M220218800 49990700
L220218800 44490700
" />
<path d="M215568800 38690700
L215568800 42190700
" />
<path d="M219568800 42190700
L219568800 38690700
" />
<path d="M239568800 38690700
L243568800 38690700
" />
<path d="M214918800 44490700
L220218800 44490700
" />
<path d="M239568800 38690700
L239568800 42190700
" />
<path d="M215568800 42190700
L219568800 42190700
" />
<path d="M238918800 49990700
L244218800 49990700
" />
<path d="M244218800 49990700
L244218800 44490700
" />
<path d="M164650000 78501300
L169950000 78501300
" />
<path d="M141300000 72701300
L145300000 72701300
" />
<path d="M140650000 84001300
L145950000 84001300
" />
<path d="M164650000 78501300
L164650000 84001300
" />
<path d="M169300000 76201300
L169300000 72701300
" />
<path d="M140650000 78501300
L140650000 84001300
" />
<path d="M165300000 76201300
L169300000 76201300
" />
<path d="M145950000 84001300
L145950000 78501300
" />
<path d="M141300000 72701300
L141300000 76201300
" />
<path d="M145300000 76201300
L145300000 72701300
" />
<path d="M165300000 72701300
L169300000 72701300
" />
<path d="M140650000 78501300
L145950000 78501300
" />
<path d="M165300000 72701300
L165300000 76201300
" />
<path d="M141300000 76201300
L145300000 76201300
" />
<path d="M164650000 84001300
L169950000 84001300
" />
<path d="M169950000 84001300
L169950000 78501300
" />
<path d="M97150000 78501300
L102450000 78501300
" />
<path d="M73800000 72701300
L77800000 72701300
" />
<path d="M73150000 84001300
L78450000 84001300
" />
<path d="M97150000 78501300
L97150000 84001300
" />
<path d="M101800000 76201300
L101800000 72701300
" />
<path d="M73150000 78501300
L73150000 84001300
" />
<path d="M97800000 76201300
L101800000 76201300
" />
<path d="M78450000 84001300
L78450000 78501300
" />
<path d="M73800000 72701300
L73800000 76201300
" />
<path d="M77800000 76201300
L77800000 72701300
" />
<path d="M97800000 72701300
L101800000 72701300
" />
<path d="M73150000 78501300
L78450000 78501300
" />
<path d="M97800000 72701300
L97800000 76201300
" />
<path d="M73800000 76201300
L77800000 76201300
" />
<path d="M97150000 84001300
L102450000 84001300
" />
<path d="M102450000 84001300
L102450000 78501300
" />
<g >
</g>
<g >
</g>
<g >
</g>
<g >
</g>
<g >
</g>
<g >
</g>
<g >
</g>
<g >
</g>
<g >
</g>
<g >
</g>
<g >
</g>
<g >
</g>
<g >
</g>
<g >
</g>
<g >
</g>
<g >
</g>
<g >
</g>
<g >
</g>
<g >
</g>
<g >
</g>
<g >
</g>
<g >
</g>
<g >
</g>
<g >
</g>
<g >
</g>
<g >
</g>
<g >
</g>
<g >
</g>
<g >
</g>
<g >
</g>
<g >
</g>
<g >
</g>
<g >
</g>
<g >
</g>
<g >
</g>
<g >
</g>
<g >
</g>
<g >
</g>
<g >
</g>
<g >
</g>
<g >
</g>
<g >
</g>
<g >
</g>
<g >
</g>
<g >
</g>
<g >
</g>
<g >
</g>
<g >
</g>
<g >
</g>
<g >
</g>
<g >
</g>
<g >
</g>
<g >
</g>
<g >
</g>
<g >
</g>
<g >
</g>
<g >
</g>
<g >
</g>
<g >
</g>
<g >
</g>
</g> 
</svg>
