<?xml version="1.0" encoding="UTF-8" standalone="no"?>
<svg
   width="251.65mm"
   height="65mm"
   viewBox="0 0 251.65 65"
   version="1.1"
   id="svg5"
   sodipodi:docname="kbplate (1).svg"
   xml:space="preserve"
   inkscape:version="1.2.2 (732a01da63, 2022-12-09)"
   xmlns:inkscape="http://www.inkscape.org/namespaces/inkscape"
   xmlns:sodipodi="http://sodipodi.sourceforge.net/DTD/sodipodi-0.dtd"
   xmlns="http://www.w3.org/2000/svg"
   xmlns:svg="http://www.w3.org/2000/svg"><defs
     id="defs9" /><sodipodi:namedview
     id="namedview7"
     pagecolor="#505050"
     bordercolor="#ffffff"
     borderopacity="1"
     inkscape:showpageshadow="0"
     inkscape:pageopacity="0"
     inkscape:pagecheckerboard="1"
     inkscape:deskcolor="#505050"
     inkscape:document-units="mm"
     showgrid="false"
     inkscape:zoom="32"
     inkscape:cx="972.28125"
     inkscape:cy="-0.46875"
     inkscape:window-width="1920"
     inkscape:window-height="1027"
     inkscape:window-x="-8"
     inkscape:window-y="-8"
     inkscape:window-maximized="1"
     inkscape:current-layer="layer1" /><path
     d="m -0.07015825,13.593544 a 0.5,0.5 0 0 0 0.5,0.5 H 13.429842 a 0.5,0.5 0 0 0 0.5,-0.5 V 0.59354433 a 0.5,0.5 0 0 0 -0.5,-0.5 H 0.42984175 a 0.5,0.5 0 0 0 -0.5,0.5 z m 18.00000025,0 a 0.5,0.5 0 0 0 0.5,0.5 h 13 a 0.5,0.5 0 0 0 0.5,-0.5 V 0.59354433 a 0.5,0.5 0 0 0 -0.5,-0.5 h -13 a 0.5,0.5 0 0 0 -0.5,0.5 z m 18,0 a 0.5,0.5 0 0 0 0.5,0.5 h 13 a 0.5,0.5 0 0 0 0.5,-0.5 V 0.59354433 a 0.5,0.5 0 0 0 -0.5,-0.5 h -13 a 0.5,0.5 0 0 0 -0.5,0.5 z m 18,0 a 0.5,0.5 0 0 0 0.5,0.5 h 13 a 0.5,0.5 0 0 0 0.5,-0.5 V 0.59354433 a 0.5,0.5 0 0 0 -0.5,-0.5 h -13 a 0.5,0.5 0 0 0 -0.5,0.5 z m 18,0 a 0.5,0.5 0 0 0 0.5,0.5 h 13 a 0.5,0.5 0 0 0 0.5,-0.5 V 0.59354433 a 0.5,0.5 0 0 0 -0.5,-0.5 h -13 a 0.5,0.5 0 0 0 -0.5,0.5 z m 18,0 a 0.5,0.5 0 0 0 0.5,0.5 h 12.999998 a 0.5,0.5 0 0 0 0.5,-0.5 V 0.59354433 a 0.5,0.5 0 0 0 -0.5,-0.5 H 90.429842 a 0.5,0.5 0 0 0 -0.5,0.5 z m 53.999998,0 a 0.5,0.5 0 0 0 0.5,0.5 h 13 a 0.5,0.5 0 0 0 0.5,-0.5 V 0.59354433 a 0.5,0.5 0 0 0 -0.5,-0.5 h -13 a 0.5,0.5 0 0 0 -0.5,0.5 z m 18,0 a 0.5,0.5 0 0 0 0.5,0.5 h 13 a 0.5,0.5 0 0 0 0.5,-0.5 V 0.59354433 a 0.5,0.5 0 0 0 -0.5,-0.5 h -13 a 0.5,0.5 0 0 0 -0.5,0.5 z m 18,0 a 0.5,0.5 0 0 0 0.5,0.5 h 13 a 0.5,0.5 0 0 0 0.5,-0.5 V 0.59354433 a 0.5,0.5 0 0 0 -0.5,-0.5 h -13 a 0.5,0.5 0 0 0 -0.5,0.5 z m 18,0 a 0.5,0.5 0 0 0 0.5,0.5 h 13 a 0.5,0.5 0 0 0 0.5,-0.5 V 0.59354433 a 0.5,0.5 0 0 0 -0.5,-0.5 h -13 a 0.5,0.5 0 0 0 -0.5,0.5 z m 18,0 a 0.5,0.5 0 0 0 0.5,0.5 h 13 a 0.5,0.5 0 0 0 0.5,-0.5 V 0.59354433 a 0.5,0.5 0 0 0 -0.5,-0.5 h -13 a 0.5,0.5 0 0 0 -0.5,0.5 z m 20.25,0 a 0.5,0.5 0 0 0 0.5,0.5 h 13 a 0.5,0.5 0 0 0 0.5,-0.5 V 0.59354433 a 0.5,0.5 0 0 0 -0.5,-0.5 h -13 a 0.5,0.5 0 0 0 -0.5,0.5 z m -233.9999983,17 a 0.5,0.5 0 0 0 0.5,0.5 H 15.679842 a 0.5,0.5 0 0 0 0.5,-0.5 v -13 a 0.5,0.5 0 0 0 -0.5,-0.5 H 2.6798417 a 0.5,0.5 0 0 0 -0.5,0.5 z m 20.2500003,0 a 0.5,0.5 0 0 0 0.5,0.5 h 13 a 0.5,0.5 0 0 0 0.5,-0.5 v -13 a 0.5,0.5 0 0 0 -0.5,-0.5 h -13 a 0.5,0.5 0 0 0 -0.5,0.5 z m 18,0 a 0.5,0.5 0 0 0 0.5,0.5 h 13 a 0.5,0.5 0 0 0 0.5,-0.5 v -13 a 0.5,0.5 0 0 0 -0.5,-0.5 h -13 a 0.5,0.5 0 0 0 -0.5,0.5 z m 18,0 a 0.5,0.5 0 0 0 0.5,0.5 h 13 a 0.5,0.5 0 0 0 0.5,-0.5 v -13 a 0.5,0.5 0 0 0 -0.5,-0.5 h -13 a 0.5,0.5 0 0 0 -0.5,0.5 z m 18,0 a 0.5,0.5 0 0 0 0.5,0.5 h 13 a 0.5,0.5 0 0 0 0.5,-0.5 v -13 a 0.5,0.5 0 0 0 -0.5,-0.5 h -13 a 0.5,0.5 0 0 0 -0.5,0.5 z m 18,0 a 0.5,0.5 0 0 0 0.5,0.5 h 12.999998 a 0.5,0.5 0 0 0 0.5,-0.5 v -13 a 0.5,0.5 0 0 0 -0.5,-0.5 H 94.929842 a 0.5,0.5 0 0 0 -0.5,0.5 z m 53.999998,0 a 0.5,0.5 0 0 0 0.5,0.5 h 13 a 0.5,0.5 0 0 0 0.5,-0.5 v -13 a 0.5,0.5 0 0 0 -0.5,-0.5 h -13 a 0.5,0.5 0 0 0 -0.5,0.5 z m 18,0 a 0.5,0.5 0 0 0 0.5,0.5 h 13 a 0.5,0.5 0 0 0 0.5,-0.5 v -13 a 0.5,0.5 0 0 0 -0.5,-0.5 h -13 a 0.5,0.5 0 0 0 -0.5,0.5 z m 18,0 a 0.5,0.5 0 0 0 0.5,0.5 h 13 a 0.5,0.5 0 0 0 0.5,-0.5 v -13 a 0.5,0.5 0 0 0 -0.5,-0.5 h -13 a 0.5,0.5 0 0 0 -0.5,0.5 z m 18,0 a 0.5,0.5 0 0 0 0.5,0.5 h 13 a 0.5,0.5 0 0 0 0.5,-0.5 v -13 a 0.5,0.5 0 0 0 -0.5,-0.5 h -13 a 0.5,0.5 0 0 0 -0.5,0.5 z m 27,0 a 0.5,0.5 0 0 0 0.5,0.5 h 13 a 0.5,0.5 0 0 0 0.5,-0.5 v -13 a 0.5,0.5 0 0 0 -0.5,-0.5 h -13 a 0.5,0.5 0 0 0 -0.5,0.5 z m -222.7499983,17 a 0.5,0.5 0 0 0 0.5,0.5 H 20.179842 a 0.5,0.5 0 0 0 0.5,-0.5 v -13 a 0.5,0.5 0 0 0 -0.5,-0.5 H 7.1798417 a 0.5,0.5 0 0 0 -0.5,0.5 z m 24.7500003,0 a 0.5,0.5 0 0 0 0.5,0.5 h 13 a 0.5,0.5 0 0 0 0.5,-0.5 v -13 a 0.5,0.5 0 0 0 -0.5,-0.5 h -13 a 0.5,0.5 0 0 0 -0.5,0.5 z m 18,0 a 0.5,0.5 0 0 0 0.5,0.5 h 13 a 0.5,0.5 0 0 0 0.5,-0.5 v -13 a 0.5,0.5 0 0 0 -0.5,-0.5 h -13 a 0.5,0.5 0 0 0 -0.5,0.5 z m 18,0 a 0.5,0.5 0 0 0 0.5,0.5 h 13 a 0.5,0.5 0 0 0 0.5,-0.5 v -13 a 0.5,0.5 0 0 0 -0.5,-0.5 h -13 a 0.5,0.5 0 0 0 -0.5,0.5 z m 18,0 a 0.5,0.5 0 0 0 0.5,0.5 h 13 a 0.5,0.5 0 0 0 0.5,-0.5 v -13 a 0.5,0.5 0 0 0 -0.5,-0.5 h -13 a 0.5,0.5 0 0 0 -0.5,0.5 z m 53.999998,0 a 0.5,0.5 0 0 0 0.5,0.5 h 13 a 0.5,0.5 0 0 0 0.5,-0.5 v -13 a 0.5,0.5 0 0 0 -0.5,-0.5 h -13 a 0.5,0.5 0 0 0 -0.5,0.5 z m 18,0 a 0.5,0.5 0 0 0 0.5,0.5 h 13 a 0.5,0.5 0 0 0 0.5,-0.5 v -13 a 0.5,0.5 0 0 0 -0.5,-0.5 h -13 a 0.5,0.5 0 0 0 -0.5,0.5 z m 18,0 a 0.5,0.5 0 0 0 0.5,0.5 h 13 a 0.5,0.5 0 0 0 0.5,-0.5 v -13 a 0.5,0.5 0 0 0 -0.5,-0.5 h -13 a 0.5,0.5 0 0 0 -0.5,0.5 z m 18,0 a 0.5,0.5 0 0 0 0.5,0.5 h 13 a 0.5,0.5 0 0 0 0.5,-0.5 v -13 a 0.5,0.5 0 0 0 -0.5,-0.5 h -13 a 0.5,0.5 0 0 0 -0.5,0.5 z m 20.25,0 a 0.5,0.5 0 0 0 0.5,0.5 h 13 a 0.5,0.5 0 0 0 0.5,-0.5 v -13 a 0.5,0.5 0 0 0 -0.5,-0.5 h -13 a 0.5,0.5 0 0 0 -0.5,0.5 z m 22.5,0 a 0.5,0.5 0 0 0 0.5,0.5 h 13 a 0.5,0.5 0 0 0 0.5,-0.5 v -13 a 0.5,0.5 0 0 0 -0.5,-0.5 h -13 a 0.5,0.5 0 0 0 -0.5,0.5 z m -233.9999983,17 a 0.5,0.5 0 0 0 0.5,0.5 H 15.679842 a 0.5,0.5 0 0 0 0.5,-0.5 v -13 a 0.5,0.5 0 0 0 -0.5,-0.5 H 2.6798417 a 0.5,0.5 0 0 0 -0.5,0.5 z m 22.5000003,0 a 0.5,0.5 0 0 0 0.5,0.5 h 13 a 0.5,0.5 0 0 0 0.5,-0.5 v -13 a 0.5,0.5 0 0 0 -0.5,-0.5 h -13 a 0.5,0.5 0 0 0 -0.5,0.5 z m 22.5,0 a 0.5,0.5 0 0 0 0.5,0.5 h 13 a 0.5,0.5 0 0 0 0.5,-0.5 v -13 a 0.5,0.5 0 0 0 -0.5,-0.5 h -13 a 0.5,0.5 0 0 0 -0.5,0.5 z m 32.13,0 a 0.5,0.5 0 0 0 0.5,0.5 h 13 a 0.5,0.5 0 0 0 0.5,-0.5 v -13 a 0.5,0.5 0 0 0 -0.5,-0.5 h -13 a 0.5,0.5 0 0 0 -0.5,0.5 z m 75.869998,0 a 0.5,0.5 0 0 0 0.5,0.5 h 13 a 0.5,0.5 0 0 0 0.5,-0.5 v -13 a 0.5,0.5 0 0 0 -0.5,-0.5 h -13 a 0.5,0.5 0 0 0 -0.5,0.5 z m 78.75,0 a 0.5,0.5 0 0 0 0.5,0.5 h 13 a 0.5,0.5 0 0 0 0.5,-0.5 v -13 a 0.5,0.5 0 0 0 -0.5,-0.5 h -13 a 0.5,0.5 0 0 0 -0.5,0.5 z m -12.65,-37.95 a 0.5,0.5 0 0 0 0.5,0.5 h 5.3 a 0.5,0.5 0 0 0 0.5,-0.5 v -5.85 a 0.5,0.5 0 0 0 -0.5,-0.5 h -0.85 v -4.15 a 0.5,0.5 0 0 0 -0.5,-0.5 h -2.6 a 0.5,0.5 0 0 0 -0.5,0.5 v 4.15 h -0.85 a 0.5,0.5 0 0 0 -0.5,0.5 z m 24,0 a 0.5,0.5 0 0 0 0.5,0.5 h 5.3 a 0.5,0.5 0 0 0 0.5,-0.5 v -5.85 a 0.5,0.5 0 0 0 -0.5,-0.5 h -0.85 v -4.15 a 0.5,0.5 0 0 0 -0.5,-0.5 h -2.6 a 0.5,0.5 0 0 0 -0.5,0.5 v 4.15 h -0.85 a 0.5,0.5 0 0 0 -0.5,0.5 z m -174.119998,34 a 0.5,0.5 0 0 0 0.5,0.5 h 5.3 a 0.5,0.5 0 0 0 0.5,-0.5 v -5.85 a 0.5,0.5 0 0 0 -0.5,-0.5 h -0.85 v -4.15 a 0.5,0.5 0 0 0 -0.5,-0.5 h -2.6 a 0.5,0.5 0 0 0 -0.5,0.5 v 4.15 h -0.85 a 0.5,0.5 0 0 0 -0.5,0.5 z m 24,0 a 0.5,0.5 0 0 0 0.5,0.5 h 5.299998 a 0.5,0.5 0 0 0 0.5,-0.5 v -5.85 a 0.5,0.5 0 0 0 -0.5,-0.5 h -0.85 v -4.15 a 0.5,0.5 0 0 0 -0.499998,-0.5 h -2.6 a 0.5,0.5 0 0 0 -0.5,0.5 v 4.15 h -0.85 a 0.5,0.5 0 0 0 -0.5,0.5 z m 51.869998,0 a 0.5,0.5 0 0 0 0.5,0.5 h 5.3 a 0.5,0.5 0 0 0 0.5,-0.5 v -5.85 a 0.5,0.5 0 0 0 -0.5,-0.5 h -0.85 v -4.15 a 0.5,0.5 0 0 0 -0.5,-0.5 h -2.6 a 0.5,0.5 0 0 0 -0.5,0.5 v 4.15 h -0.85 a 0.5,0.5 0 0 0 -0.5,0.5 z m 24,0 a 0.5,0.5 0 0 0 0.5,0.5 h 5.3 a 0.5,0.5 0 0 0 0.5,-0.5 v -5.85 a 0.5,0.5 0 0 0 -0.5,-0.5 h -0.85 v -4.15 a 0.5,0.5 0 0 0 -0.5,-0.5 h -2.6 a 0.5,0.5 0 0 0 -0.5,0.5 v 4.15 h -0.85 a 0.5,0.5 0 0 0 -0.5,0.5 z"
     vector-effect="non-scaling-stroke"
     id="path2"
     style="font-size:12px;fill:none;fill-rule:evenodd;stroke:#000000;stroke-width:0.25mm;stroke-linecap:round" /><g
     inkscape:groupmode="layer"
     id="layer1"
     inkscape:label="trace"><g
       style="fill:#000000;fill-opacity:1;stroke:#000000;stroke-linecap:round;stroke-linejoin:round;stroke-opacity:1"
       id="g9801"
       transform="matrix(9.9999997e-7,0,0,9.9999997e-7,-1.3025918,-94.384522)" /><g
       style="fill:#000000;fill-opacity:0;stroke:#000000;stroke-width:0;stroke-linecap:round;stroke-linejoin:round;stroke-opacity:1"
       id="g9803"
       transform="matrix(9.9999997e-7,0,0,9.9999997e-7,-1.3025918,-94.384522)" /><g
       style="fill:#000000;fill-opacity:0;stroke:#000000;stroke-width:120000;stroke-linecap:round;stroke-linejoin:round;stroke-opacity:1"
       id="g9845"
       transform="matrix(9.9999997e-7,0,0,9.9999997e-7,6.8878086,-23.624782)"><path
         d="m 239768800,39240700 h 3600000"
         id="path9813" /><path
         d="M 244718800,50740700 V 43890700"
         id="path9815" /><path
         d="m 215768800,39240700 h 3600000"
         id="path9817" /><path
         d="m 238418800,43890700 h 1350000"
         id="path9819" /><path
         d="M 220718800,50740700 V 43890700"
         id="path9821" /><path
         d="M 238418800,50740700 V 43890700"
         id="path9823" /><path
         d="m 219368800,43890700 h 1350000"
         id="path9825" /><path
         d="m 215768800,39240700 v 4650000"
         id="path9827" /><path
         d="m 243368800,39240700 v 4650000"
         id="path9829" /><path
         d="M 214418800,50740700 V 43890700"
         id="path9831" /><path
         d="m 239768800,39240700 v 4650000"
         id="path9833" /><path
         d="m 219368800,39240700 v 4650000"
         id="path9835" /><path
         d="m 214418800,43890700 h 1350000"
         id="path9837" /><path
         d="m 243368800,43890700 h 1350000"
         id="path9839" /><path
         d="m 238418800,50740700 h 6300000"
         id="path9841" /><path
         d="m 214418800,50740700 h 6300000"
         id="path9843" /></g><g
       style="fill:#000000;fill-opacity:0;stroke:#000000;stroke-width:120000;stroke-linecap:round;stroke-linejoin:round;stroke-opacity:1"
       id="g9885"
       transform="matrix(9.9999997e-7,0,0,9.9999997e-7,6.8878086,-23.624782)"><path
         d="m 165500000,73251300 h 3600000"
         id="path9853" /><path
         d="M 170450000,84751300 V 77901300"
         id="path9855" /><path
         d="m 141500000,73251300 h 3600000"
         id="path9857" /><path
         d="m 164150000,77901300 h 1350000"
         id="path9859" /><path
         d="M 146450000,84751300 V 77901300"
         id="path9861" /><path
         d="M 164150000,84751300 V 77901300"
         id="path9863" /><path
         d="m 145100000,77901300 h 1350000"
         id="path9865" /><path
         d="m 141500000,73251300 v 4650000"
         id="path9867" /><path
         d="m 169100000,73251300 v 4650000"
         id="path9869" /><path
         d="M 140150000,84751300 V 77901300"
         id="path9871" /><path
         d="m 165500000,73251300 v 4650000"
         id="path9873" /><path
         d="m 145100000,73251300 v 4650000"
         id="path9875" /><path
         d="m 140150000,77901300 h 1350000"
         id="path9877" /><path
         d="m 169100000,77901300 h 1350000"
         id="path9879" /><path
         d="m 164150000,84751300 h 6300000"
         id="path9881" /><path
         d="m 140150000,84751300 h 6300000"
         id="path9883" /></g><g
       style="fill:#000000;fill-opacity:0;stroke:#000000;stroke-width:120000;stroke-linecap:round;stroke-linejoin:round;stroke-opacity:1"
       id="g10043"
       transform="matrix(9.9999997e-7,0,0,9.9999997e-7,-1.4269778,-23.67403)"><path
         d="m 98000000,73251300 h 3600000"
         id="path9891" /><path
         d="M 102950000,84751300 V 77901300"
         id="path9893" /><path
         d="m 74000000,73251300 h 3600000"
         id="path9895" /><path
         d="m 96650000,77901300 h 1350000"
         id="path9897" /><path
         d="M 78950000,84751300 V 77901300"
         id="path9899" /><path
         d="M 96650000,84751300 V 77901300"
         id="path9901" /><path
         d="m 77600000,77901300 h 1350000"
         id="path9903" /><path
         d="m 74000000,73251300 v 4650000"
         id="path9905" /><path
         d="m 101600000,73251300 v 4650000"
         id="path9907" /><path
         d="M 72650000,84751300 V 77901300"
         id="path9909" /><path
         d="m 98000000,73251300 v 4650000"
         id="path9911" /><path
         d="m 77600000,73251300 v 4650000"
         id="path9913" /><path
         d="m 72650000,77901300 h 1350000"
         id="path9915" /><path
         d="m 101600000,77901300 h 1350000"
         id="path9917" /><path
         d="m 96650000,84751300 h 6300000"
         id="path9919" /><path
         d="m 72650000,84751300 h 6300000"
         id="path9921" /><g
         id="g9923" /><g
         id="g9925" /><g
         id="g9927" /><g
         id="g9929" /><g
         id="g9931" /><g
         id="g9933" /><g
         id="g9935" /><g
         id="g9937" /><g
         id="g9939" /><g
         id="g9941" /><g
         id="g9943" /><g
         id="g9945" /><g
         id="g9947" /><g
         id="g9949" /><g
         id="g9951" /><g
         id="g9953" /><g
         id="g9955" /><g
         id="g9957" /><g
         id="g9959" /><g
         id="g9961" /><g
         id="g9963" /><g
         id="g9965" /><g
         id="g9967" /><g
         id="g9969" /><g
         id="g9971" /><g
         id="g9973" /><g
         id="g9975" /><g
         id="g9977" /><g
         id="g9979" /><g
         id="g9981" /><g
         id="g9983" /><g
         id="g9985" /><g
         id="g9987" /><g
         id="g9989" /><g
         id="g9991" /><g
         id="g9993" /><g
         id="g9995" /><g
         id="g9997" /><g
         id="g9999" /><g
         id="g10001" /><g
         id="g10003" /><g
         id="g10005" /><g
         id="g10007" /><g
         id="g10009" /><g
         id="g10011" /><g
         id="g10013" /><g
         id="g10015" /><g
         id="g10017" /><g
         id="g10019" /><g
         id="g10021" /><g
         id="g10023" /><g
         id="g10025" /><g
         id="g10027" /><g
         id="g10029" /><g
         id="g10031" /><g
         id="g10033" /><g
         id="g10035" /><g
         id="g10037" /><g
         id="g10039" /><g
         id="g10041" /></g><g
       style="fill:#000000;fill-opacity:0;stroke:#000000;stroke-width:120000;stroke-linecap:round;stroke-linejoin:round;stroke-opacity:1"
       id="g10045"
       transform="matrix(9.9999997e-7,0,0,9.9999997e-7,-1.3025918,-94.384522)" /><path
       d="m 141.93779,13.084967 a 1.12685,1.12685 0 0 0 1.12501,1.062499"
       id="path10047"
       style="fill:#000000;fill-opacity:0;stroke:#000000;stroke-width:0.1;stroke-linecap:round;stroke-linejoin:round;stroke-opacity:1" /><path
       d="m 106.62299,65.629383 a 2.1284994,2.1284995 0 0 0 2.25,-2.12492"
       id="path10049"
       style="fill:#000000;fill-opacity:0;stroke:#000000;stroke-width:0.1;stroke-linecap:round;stroke-linejoin:round;stroke-opacity:1" /><path
       d="m 137.43779,47.084967 a 1.12685,1.12685 0 0 0 1.12501,1.062499"
       id="path10051"
       style="fill:#000000;fill-opacity:0;stroke:#000000;stroke-width:0.1;stroke-linecap:round;stroke-linejoin:round;stroke-opacity:1" /><path
       d="m 108.87297,51.285714 a 2.2536493,2.2536494 0 0 0 -2.24998,-2.125"
       id="path10053"
       style="fill:#000000;fill-opacity:0;stroke:#000000;stroke-width:0.1;stroke-linecap:round;stroke-linejoin:round;stroke-opacity:1" /><path
       d="M 108.87299,51.285714 V 63.504463"
       id="path10055"
       style="fill:#000000;fill-opacity:0;stroke:#000000;stroke-width:0.1;stroke-linecap:round;stroke-linejoin:round;stroke-opacity:1" /><path
       d="m 104.373,31.098214 v 18.0625"
       id="path10057"
       style="fill:#000000;fill-opacity:0;stroke:#000000;stroke-width:0.1;stroke-linecap:round;stroke-linejoin:round;stroke-opacity:1" /><path
       d="m 252.1878,65.678715 h -108"
       id="path10059"
       style="fill:#000000;fill-opacity:0;stroke:#000000;stroke-width:0.1;stroke-linecap:round;stroke-linejoin:round;stroke-opacity:1" /><path
       d="M -1.4640752,63.517366 V 0.45198388"
       id="path10061"
       style="fill:#000000;fill-opacity:0;stroke:#000000;stroke-width:0.0861363;stroke-linecap:round;stroke-linejoin:round;stroke-opacity:1" /><path
       d="m 138.5628,31.678716 h 7.875"
       id="path10063"
       style="fill:#000000;fill-opacity:0;stroke:#000000;stroke-width:0.1;stroke-linecap:round;stroke-linejoin:round;stroke-opacity:1" /><path
       d="M 146.4378,31.678716 V 14.147466"
       id="path10065"
       style="fill:#000000;fill-opacity:0;stroke:#000000;stroke-width:0.1;stroke-linecap:round;stroke-linejoin:round;stroke-opacity:1" /><path
       d="m 146.4378,14.147466 h -3.375"
       id="path10067"
       style="fill:#000000;fill-opacity:0;stroke:#000000;stroke-width:0.1;stroke-linecap:round;stroke-linejoin:round;stroke-opacity:1" /><path
       d="m 113.373,16.223215 a 1.1269497,1.1269497 0 0 0 -1.12501,-1.0625"
       id="path10069"
       style="fill:#000000;fill-opacity:0;stroke:#000000;stroke-width:0.1;stroke-linecap:round;stroke-linejoin:round;stroke-opacity:1" /><path
       d="M 137.4378,47.084966 V 32.741216"
       id="path10071"
       style="fill:#000000;fill-opacity:0;stroke:#000000;stroke-width:0.1;stroke-linecap:round;stroke-linejoin:round;stroke-opacity:1" /><path
       d="m 252.1878,65.678645 a 2.1284999,2.1284999 0 0 0 2.25,-2.12493"
       id="path10073"
       style="fill:#000000;fill-opacity:0;stroke:#000000;stroke-width:0.1;stroke-linecap:round;stroke-linejoin:round;stroke-opacity:1" /><path
       d="m 138.5628,31.678654 a 1.0642,1.0642 0 0 0 -1.125,1.062562"
       id="path10075"
       style="fill:#000000;fill-opacity:0;stroke:#000000;stroke-width:0.1;stroke-linecap:round;stroke-linejoin:round;stroke-opacity:1" /><path
       d="M 141.9378,63.553715 V 48.147466"
       id="path10077"
       style="fill:#000000;fill-opacity:0;stroke:#000000;stroke-width:0.1;stroke-linecap:round;stroke-linejoin:round;stroke-opacity:1" /><path
       d="m 104.373,49.160714 h 2.24999"
       id="path10079"
       style="fill:#000000;fill-opacity:0;stroke:#000000;stroke-width:0.1;stroke-linecap:round;stroke-linejoin:round;stroke-opacity:1" /><path
       d="M 113.37299,16.223215 V 30.035714"
       id="path10081"
       style="fill:#000000;fill-opacity:0;stroke:#000000;stroke-width:0.1;stroke-linecap:round;stroke-linejoin:round;stroke-opacity:1" /><path
       d="m -1.377,63.504463 a 2.2536993,2.2536994 0 0 0 2.25002153,2.12499"
       id="path10083"
       style="fill:#000000;fill-opacity:0;stroke:#000000;stroke-width:0.1;stroke-linecap:round;stroke-linejoin:round;stroke-opacity:1" /><path
       d="m 112.24799,31.098224 a 1.0641998,1.0641998 0 0 0 1.125,-1.06251"
       id="path10085"
       style="fill:#000000;fill-opacity:0;stroke:#000000;stroke-width:0.1;stroke-linecap:round;stroke-linejoin:round;stroke-opacity:1" /><path
       d="m 141.93778,63.553716 a 2.2536999,2.2536999 0 0 0 2.25002,2.124999"
       id="path10087"
       style="fill:#000000;fill-opacity:0;stroke:#000000;stroke-width:0.1;stroke-linecap:round;stroke-linejoin:round;stroke-opacity:1" /><path
       d="m 141.9378,48.147466 h -3.375"
       id="path10093"
       style="fill:#000000;fill-opacity:0;stroke:#000000;stroke-width:0.1;stroke-linecap:round;stroke-linejoin:round;stroke-opacity:1" /><path
       d="M 112.24799,31.098214 H 104.373"
       id="path10095"
       style="fill:#000000;fill-opacity:0;stroke:#000000;stroke-width:0.1;stroke-linecap:round;stroke-linejoin:round;stroke-opacity:1" /><path
       d="M 254.4378,63.566035 V -0.49037266"
       id="path10099"
       style="fill:#000000;fill-opacity:0;stroke:#000000;stroke-width:0.0868104;stroke-linecap:round;stroke-linejoin:round;stroke-opacity:1" /><path
       d="M 0.87302153,-0.60862366 H 106.62299"
       id="path10101"
       style="fill:#000000;fill-opacity:0;stroke:#000000;stroke-width:0.1;stroke-linecap:round;stroke-linejoin:round;stroke-opacity:1" /><path
       d="m 108.87299,15.160715 h 3.375"
       id="path10103"
       style="fill:#000000;fill-opacity:0;stroke:#000000;stroke-width:0.1;stroke-linecap:round;stroke-linejoin:round;stroke-opacity:1" /><path
       d="M 108.87299,0.02546534 V 15.190056"
       id="path10105"
       style="fill:#000000;fill-opacity:0;stroke:#000000;stroke-width:0.0643193;stroke-linecap:round;stroke-linejoin:round;stroke-opacity:1" /><path
       d="M 141.9378,13.116004 V 0.02007619"
       id="path10107"
       style="fill:#000000;fill-opacity:0;stroke:#000000;stroke-width:0.0615832;stroke-linecap:round;stroke-linejoin:round;stroke-opacity:1" /><path
       d="M 106.62299,65.629453 H 0.87302153"
       id="path10109"
       style="fill:#000000;fill-opacity:0;stroke:#000000;stroke-width:0.1;stroke-linecap:round;stroke-linejoin:round;stroke-opacity:1" /><path
       d="m 144.1878,-0.48638624 h 108.125"
       id="path10111"
       style="fill:#000000;fill-opacity:0;stroke:#000000;stroke-width:0.1;stroke-linecap:round;stroke-linejoin:round;stroke-opacity:1" /><rect
       style="fill:none;stroke-width:0.264583"
       id="rect10716"
       width="1.6638016"
       height="90.469208"
       x="118.12991"
       y="-95.876564" /><rect
       style="fill:none;stroke-width:0.264583"
       id="rect10724"
       width="5.4073553"
       height="94.004791"
       x="115.21825"
       y="-97.540367" /><path
       style="fill:none;stroke-width:0.264583"
       d="M 122.08144,-93.588839 V -4.3674791 Z"
       id="path10726" /></g></svg>
