<svg width="256.5mm" height="68mm" viewBox="0 0 256.5 68" xmlns="http://www.w3.org/2000/svg"><g id="svgGroup" stroke-linecap="round" fill-rule="evenodd" font-size="9pt" stroke="#000" stroke-width="0.25mm" fill="none" style="stroke:#000;stroke-width:0.25mm;fill:none"><path d="M 0 68 L 256.5 68 L 256.5 0 L 0 0 L 0 68 Z M 2.5 1.5 L 15.5 1.5 A 0.5 0.5 0 0 1 16 2 L 16 15 A 0.5 0.5 0 0 1 15.5 15.5 L 2.5 15.5 A 0.5 0.5 0 0 1 2 15 L 2 2 A 0.5 0.5 0 0 1 2.5 1.5 Z M 20.5 1.5 L 33.5 1.5 A 0.5 0.5 0 0 1 34 2 L 34 15 A 0.5 0.5 0 0 1 33.5 15.5 L 20.5 15.5 A 0.5 0.5 0 0 1 20 15 L 20 2 A 0.5 0.5 0 0 1 20.5 1.5 Z M 38.5 1.5 L 51.5 1.5 A 0.5 0.5 0 0 1 52 2 L 52 15 A 0.5 0.5 0 0 1 51.5 15.5 L 38.5 15.5 A 0.5 0.5 0 0 1 38 15 L 38 2 A 0.5 0.5 0 0 1 38.5 1.5 Z M 56.5 1.5 L 69.5 1.5 A 0.5 0.5 0 0 1 70 2 L 70 15 A 0.5 0.5 0 0 1 69.5 15.5 L 56.5 15.5 A 0.5 0.5 0 0 1 56 15 L 56 2 A 0.5 0.5 0 0 1 56.5 1.5 Z M 74.5 1.5 L 87.5 1.5 A 0.5 0.5 0 0 1 88 2 L 88 15 A 0.5 0.5 0 0 1 87.5 15.5 L 74.5 15.5 A 0.5 0.5 0 0 1 74 15 L 74 2 A 0.5 0.5 0 0 1 74.5 1.5 Z M 92.5 1.5 L 105.5 1.5 A 0.5 0.5 0 0 1 106 2 L 106 15 A 0.5 0.5 0 0 1 105.5 15.5 L 92.5 15.5 A 0.5 0.5 0 0 1 92 15 L 92 2 A 0.5 0.5 0 0 1 92.5 1.5 Z M 146.5 1.5 L 159.5 1.5 A 0.5 0.5 0 0 1 160 2 L 160 15 A 0.5 0.5 0 0 1 159.5 15.5 L 146.5 15.5 A 0.5 0.5 0 0 1 146 15 L 146 2 A 0.5 0.5 0 0 1 146.5 1.5 Z M 164.5 1.5 L 177.5 1.5 A 0.5 0.5 0 0 1 178 2 L 178 15 A 0.5 0.5 0 0 1 177.5 15.5 L 164.5 15.5 A 0.5 0.5 0 0 1 164 15 L 164 2 A 0.5 0.5 0 0 1 164.5 1.5 Z M 182.5 1.5 L 195.5 1.5 A 0.5 0.5 0 0 1 196 2 L 196 15 A 0.5 0.5 0 0 1 195.5 15.5 L 182.5 15.5 A 0.5 0.5 0 0 1 182 15 L 182 2 A 0.5 0.5 0 0 1 182.5 1.5 Z M 200.5 1.5 L 213.5 1.5 A 0.5 0.5 0 0 1 214 2 L 214 15 A 0.5 0.5 0 0 1 213.5 15.5 L 200.5 15.5 A 0.5 0.5 0 0 1 200 15 L 200 2 A 0.5 0.5 0 0 1 200.5 1.5 Z M 218.5 1.5 L 231.5 1.5 A 0.5 0.5 0 0 1 232 2 L 232 15 A 0.5 0.5 0 0 1 231.5 15.5 L 218.5 15.5 A 0.5 0.5 0 0 1 218 15 L 218 2 A 0.5 0.5 0 0 1 218.5 1.5 Z M 238.75 1.5 L 251.75 1.5 A 0.5 0.5 0 0 1 252.25 2 L 252.25 15 A 0.5 0.5 0 0 1 251.75 15.5 L 238.75 15.5 A 0.5 0.5 0 0 1 238.25 15 L 238.25 2 A 0.5 0.5 0 0 1 238.75 1.5 Z M 4.75 18.5 L 17.75 18.5 A 0.5 0.5 0 0 1 18.25 19 L 18.25 32 A 0.5 0.5 0 0 1 17.75 32.5 L 4.75 32.5 A 0.5 0.5 0 0 1 4.25 32 L 4.25 19 A 0.5 0.5 0 0 1 4.75 18.5 Z M 25 18.5 L 38 18.5 A 0.5 0.5 0 0 1 38.5 19 L 38.5 32 A 0.5 0.5 0 0 1 38 32.5 L 25 32.5 A 0.5 0.5 0 0 1 24.5 32 L 24.5 19 A 0.5 0.5 0 0 1 25 18.5 Z M 43 18.5 L 56 18.5 A 0.5 0.5 0 0 1 56.5 19 L 56.5 32 A 0.5 0.5 0 0 1 56 32.5 L 43 32.5 A 0.5 0.5 0 0 1 42.5 32 L 42.5 19 A 0.5 0.5 0 0 1 43 18.5 Z M 61 18.5 L 74 18.5 A 0.5 0.5 0 0 1 74.5 19 L 74.5 32 A 0.5 0.5 0 0 1 74 32.5 L 61 32.5 A 0.5 0.5 0 0 1 60.5 32 L 60.5 19 A 0.5 0.5 0 0 1 61 18.5 Z M 79 18.5 L 92 18.5 A 0.5 0.5 0 0 1 92.5 19 L 92.5 32 A 0.5 0.5 0 0 1 92 32.5 L 79 32.5 A 0.5 0.5 0 0 1 78.5 32 L 78.5 19 A 0.5 0.5 0 0 1 79 18.5 Z M 97 18.5 L 110 18.5 A 0.5 0.5 0 0 1 110.5 19 L 110.5 32 A 0.5 0.5 0 0 1 110 32.5 L 97 32.5 A 0.5 0.5 0 0 1 96.5 32 L 96.5 19 A 0.5 0.5 0 0 1 97 18.5 Z M 151 18.5 L 164 18.5 A 0.5 0.5 0 0 1 164.5 19 L 164.5 32 A 0.5 0.5 0 0 1 164 32.5 L 151 32.5 A 0.5 0.5 0 0 1 150.5 32 L 150.5 19 A 0.5 0.5 0 0 1 151 18.5 Z M 169 18.5 L 182 18.5 A 0.5 0.5 0 0 1 182.5 19 L 182.5 32 A 0.5 0.5 0 0 1 182 32.5 L 169 32.5 A 0.5 0.5 0 0 1 168.5 32 L 168.5 19 A 0.5 0.5 0 0 1 169 18.5 Z M 187 18.5 L 200 18.5 A 0.5 0.5 0 0 1 200.5 19 L 200.5 32 A 0.5 0.5 0 0 1 200 32.5 L 187 32.5 A 0.5 0.5 0 0 1 186.5 32 L 186.5 19 A 0.5 0.5 0 0 1 187 18.5 Z M 205 18.5 L 218 18.5 A 0.5 0.5 0 0 1 218.5 19 L 218.5 32 A 0.5 0.5 0 0 1 218 32.5 L 205 32.5 A 0.5 0.5 0 0 1 204.5 32 L 204.5 19 A 0.5 0.5 0 0 1 205 18.5 Z M 232 18.5 L 245 18.5 A 0.5 0.5 0 0 1 245.5 19 L 245.5 32 A 0.5 0.5 0 0 1 245 32.5 L 232 32.5 A 0.5 0.5 0 0 1 231.5 32 L 231.5 19 A 0.5 0.5 0 0 1 232 18.5 Z M 9.25 35.5 L 22.25 35.5 A 0.5 0.5 0 0 1 22.75 36 L 22.75 49 A 0.5 0.5 0 0 1 22.25 49.5 L 9.25 49.5 A 0.5 0.5 0 0 1 8.75 49 L 8.75 36 A 0.5 0.5 0 0 1 9.25 35.5 Z M 34 35.5 L 47 35.5 A 0.5 0.5 0 0 1 47.5 36 L 47.5 49 A 0.5 0.5 0 0 1 47 49.5 L 34 49.5 A 0.5 0.5 0 0 1 33.5 49 L 33.5 36 A 0.5 0.5 0 0 1 34 35.5 Z M 52 35.5 L 65 35.5 A 0.5 0.5 0 0 1 65.5 36 L 65.5 49 A 0.5 0.5 0 0 1 65 49.5 L 52 49.5 A 0.5 0.5 0 0 1 51.5 49 L 51.5 36 A 0.5 0.5 0 0 1 52 35.5 Z M 70 35.5 L 83 35.5 A 0.5 0.5 0 0 1 83.5 36 L 83.5 49 A 0.5 0.5 0 0 1 83 49.5 L 70 49.5 A 0.5 0.5 0 0 1 69.5 49 L 69.5 36 A 0.5 0.5 0 0 1 70 35.5 Z M 88 35.5 L 101 35.5 A 0.5 0.5 0 0 1 101.5 36 L 101.5 49 A 0.5 0.5 0 0 1 101 49.5 L 88 49.5 A 0.5 0.5 0 0 1 87.5 49 L 87.5 36 A 0.5 0.5 0 0 1 88 35.5 Z M 142 35.5 L 155 35.5 A 0.5 0.5 0 0 1 155.5 36 L 155.5 49 A 0.5 0.5 0 0 1 155 49.5 L 142 49.5 A 0.5 0.5 0 0 1 141.5 49 L 141.5 36 A 0.5 0.5 0 0 1 142 35.5 Z M 160 35.5 L 173 35.5 A 0.5 0.5 0 0 1 173.5 36 L 173.5 49 A 0.5 0.5 0 0 1 173 49.5 L 160 49.5 A 0.5 0.5 0 0 1 159.5 49 L 159.5 36 A 0.5 0.5 0 0 1 160 35.5 Z M 178 35.5 L 191 35.5 A 0.5 0.5 0 0 1 191.5 36 L 191.5 49 A 0.5 0.5 0 0 1 191 49.5 L 178 49.5 A 0.5 0.5 0 0 1 177.5 49 L 177.5 36 A 0.5 0.5 0 0 1 178 35.5 Z M 196 35.5 L 209 35.5 A 0.5 0.5 0 0 1 209.5 36 L 209.5 49 A 0.5 0.5 0 0 1 209 49.5 L 196 49.5 A 0.5 0.5 0 0 1 195.5 49 L 195.5 36 A 0.5 0.5 0 0 1 196 35.5 Z M 216.25 35.5 L 229.25 35.5 A 0.5 0.5 0 0 1 229.75 36 L 229.75 49 A 0.5 0.5 0 0 1 229.25 49.5 L 216.25 49.5 A 0.5 0.5 0 0 1 215.75 49 L 215.75 36 A 0.5 0.5 0 0 1 216.25 35.5 Z M 238.75 35.5 L 251.75 35.5 A 0.5 0.5 0 0 1 252.25 36 L 252.25 49 A 0.5 0.5 0 0 1 251.75 49.5 L 238.75 49.5 A 0.5 0.5 0 0 1 238.25 49 L 238.25 36 A 0.5 0.5 0 0 1 238.75 35.5 Z M 4.75 52.5 L 17.75 52.5 A 0.5 0.5 0 0 1 18.25 53 L 18.25 66 A 0.5 0.5 0 0 1 17.75 66.5 L 4.75 66.5 A 0.5 0.5 0 0 1 4.25 66 L 4.25 53 A 0.5 0.5 0 0 1 4.75 52.5 Z M 27.25 52.5 L 40.25 52.5 A 0.5 0.5 0 0 1 40.75 53 L 40.75 66 A 0.5 0.5 0 0 1 40.25 66.5 L 27.25 66.5 A 0.5 0.5 0 0 1 26.75 66 L 26.75 53 A 0.5 0.5 0 0 1 27.25 52.5 Z M 49.75 52.5 L 62.75 52.5 A 0.5 0.5 0 0 1 63.25 53 L 63.25 66 A 0.5 0.5 0 0 1 62.75 66.5 L 49.75 66.5 A 0.5 0.5 0 0 1 49.25 66 L 49.25 53 A 0.5 0.5 0 0 1 49.75 52.5 Z M 81.88 52.5 L 94.88 52.5 A 0.5 0.5 0 0 1 95.38 53 L 95.38 66 A 0.5 0.5 0 0 1 94.88 66.5 L 81.88 66.5 A 0.5 0.5 0 0 1 81.38 66 L 81.38 53 A 0.5 0.5 0 0 1 81.88 52.5 Z M 157.75 52.5 L 170.75 52.5 A 0.5 0.5 0 0 1 171.25 53 L 171.25 66 A 0.5 0.5 0 0 1 170.75 66.5 L 157.75 66.5 A 0.5 0.5 0 0 1 157.25 66 L 157.25 53 A 0.5 0.5 0 0 1 157.75 52.5 Z M 236.5 52.5 L 249.5 52.5 A 0.5 0.5 0 0 1 250 53 L 250 66 A 0.5 0.5 0 0 1 249.5 66.5 L 236.5 66.5 A 0.5 0.5 0 0 1 236 66 L 236 53 A 0.5 0.5 0 0 1 236.5 52.5 Z" vector-effect="non-scaling-stroke"/></g></svg>