<?xml version="1.0" encoding="UTF-8" standalone="no"?>
<svg
   version="1.1"
   width="25.504140cm"
   height="9.070340cm"
   viewBox="0 0 255041400 90703400"
   id="svg982"
   sodipodi:docname="plate.svg"
   inkscape:version="1.2.2 (732a01da63, 2022-12-09)"
   xmlns:inkscape="http://www.inkscape.org/namespaces/inkscape"
   xmlns:sodipodi="http://sodipodi.sourceforge.net/DTD/sodipodi-0.dtd"
   xmlns="http://www.w3.org/2000/svg"
   xmlns:svg="http://www.w3.org/2000/svg">
  <defs
     id="defs986" />
  <sodipodi:namedview
     id="namedview984"
     pagecolor="#505050"
     bordercolor="#ffffff"
     borderopacity="1"
     inkscape:showpageshadow="0"
     inkscape:pageopacity="0"
     inkscape:pagecheckerboard="1"
     inkscape:deskcolor="#505050"
     inkscape:document-units="cm"
     showgrid="false"
     inkscape:zoom="2"
     inkscape:cx="496.5"
     inkscape:cy="278"
     inkscape:window-width="1920"
     inkscape:window-height="1027"
     inkscape:window-x="-8"
     inkscape:window-y="-8"
     inkscape:window-maximized="1"
     inkscape:current-layer="svg982" />
  <title
     id="title2">SVG Picture created as floppa40-brd.svg date 2022/12/19 15:28:57 </title>
  <desc
     id="desc4">Picture generated by PCBNEW </desc>
  <g
     style="fill:#000000; fill-opacity:1.000000;stroke:#000000; stroke-opacity:1.000000; stroke-linecap:round; stroke-linejoin:round;"
     transform="translate(0 0) scale(1 1)"
     id="g6" />
  <g
     style="fill:#000000; fill-opacity:0.0;  stroke:#000000; stroke-width:0.000000; stroke-opacity:1;  stroke-linecap:round; stroke-linejoin:round;"
     id="g8" />
  <g
     style="fill:#000000; fill-opacity:0.0;  stroke:#000000; stroke-width:120000.000000; stroke-opacity:1;  stroke-linecap:round; stroke-linejoin:round;"
     id="g50">
    <path
       d="M244726943 39240700 L248326943 39240700 "
       id="path18" />
    <path
       d="M249676943 50740700 L249676943 43890700 "
       id="path20" />
    <path
       d="M220726943 39240700 L224326943 39240700 "
       id="path22" />
    <path
       d="M243376943 43890700 L244726943 43890700 "
       id="path24" />
    <path
       d="M225676943 50740700 L225676943 43890700 "
       id="path26" />
    <path
       d="M243376943 50740700 L243376943 43890700 "
       id="path28" />
    <path
       d="M224326943 43890700 L225676943 43890700 "
       id="path30" />
    <path
       d="M220726943 39240700 L220726943 43890700 "
       id="path32" />
    <path
       d="M248326943 39240700 L248326943 43890700 "
       id="path34" />
    <path
       d="M219376943 50740700 L219376943 43890700 "
       id="path36" />
    <path
       d="M244726943 39240700 L244726943 43890700 "
       id="path38" />
    <path
       d="M224326943 39240700 L224326943 43890700 "
       id="path40" />
    <path
       d="M219376943 43890700 L220726943 43890700 "
       id="path42" />
    <path
       d="M248326943 43890700 L249676943 43890700 "
       id="path44" />
    <path
       d="M243376943 50740700 L249676943 50740700 "
       id="path46" />
    <path
       d="M219376943 50740700 L225676943 50740700 "
       id="path48" />
  </g>
  <g
     style="fill:#000000; fill-opacity:0.0;  stroke:#000000; stroke-width:120000.000000; stroke-opacity:1;  stroke-linecap:round; stroke-linejoin:round;"
     id="g90">
    <path
       d="M170458143 73251300 L174058143 73251300 "
       id="path58" />
    <path
       d="M175408143 84751300 L175408143 77901300 "
       id="path60" />
    <path
       d="M146458143 73251300 L150058143 73251300 "
       id="path62" />
    <path
       d="M169108143 77901300 L170458143 77901300 "
       id="path64" />
    <path
       d="M151408143 84751300 L151408143 77901300 "
       id="path66" />
    <path
       d="M169108143 84751300 L169108143 77901300 "
       id="path68" />
    <path
       d="M150058143 77901300 L151408143 77901300 "
       id="path70" />
    <path
       d="M146458143 73251300 L146458143 77901300 "
       id="path72" />
    <path
       d="M174058143 73251300 L174058143 77901300 "
       id="path74" />
    <path
       d="M145108143 84751300 L145108143 77901300 "
       id="path76" />
    <path
       d="M170458143 73251300 L170458143 77901300 "
       id="path78" />
    <path
       d="M150058143 73251300 L150058143 77901300 "
       id="path80" />
    <path
       d="M145108143 77901300 L146458143 77901300 "
       id="path82" />
    <path
       d="M174058143 77901300 L175408143 77901300 "
       id="path84" />
    <path
       d="M169108143 84751300 L175408143 84751300 "
       id="path86" />
    <path
       d="M145108143 84751300 L151408143 84751300 "
       id="path88" />
  </g>
  <g
     style="fill:#000000; fill-opacity:0.0;  stroke:#000000; stroke-width:120000.000000; stroke-opacity:1;  stroke-linecap:round; stroke-linejoin:round;"
     id="g248">
    <path
       d="M102958143 73251300 L106558143 73251300 "
       id="path96" />
    <path
       d="M107908143 84751300 L107908143 77901300 "
       id="path98" />
    <path
       d="M78958143 73251300 L82558143 73251300 "
       id="path100" />
    <path
       d="M101608143 77901300 L102958143 77901300 "
       id="path102" />
    <path
       d="M83908143 84751300 L83908143 77901300 "
       id="path104" />
    <path
       d="M101608143 84751300 L101608143 77901300 "
       id="path106" />
    <path
       d="M82558143 77901300 L83908143 77901300 "
       id="path108" />
    <path
       d="M78958143 73251300 L78958143 77901300 "
       id="path110" />
    <path
       d="M106558143 73251300 L106558143 77901300 "
       id="path112" />
    <path
       d="M77608143 84751300 L77608143 77901300 "
       id="path114" />
    <path
       d="M102958143 73251300 L102958143 77901300 "
       id="path116" />
    <path
       d="M82558143 73251300 L82558143 77901300 "
       id="path118" />
    <path
       d="M77608143 77901300 L78958143 77901300 "
       id="path120" />
    <path
       d="M106558143 77901300 L107908143 77901300 "
       id="path122" />
    <path
       d="M101608143 84751300 L107908143 84751300 "
       id="path124" />
    <path
       d="M77608143 84751300 L83908143 84751300 "
       id="path126" />
    <g
       id="g128" />
    <g
       id="g130" />
    <g
       id="g132" />
    <g
       id="g134" />
    <g
       id="g136" />
    <g
       id="g138" />
    <g
       id="g140" />
    <g
       id="g142" />
    <g
       id="g144" />
    <g
       id="g146" />
    <g
       id="g148" />
    <g
       id="g150" />
    <g
       id="g152" />
    <g
       id="g154" />
    <g
       id="g156" />
    <g
       id="g158" />
    <g
       id="g160" />
    <g
       id="g162" />
    <g
       id="g164" />
    <g
       id="g166" />
    <g
       id="g168" />
    <g
       id="g170" />
    <g
       id="g172" />
    <g
       id="g174" />
    <g
       id="g176" />
    <g
       id="g178" />
    <g
       id="g180" />
    <g
       id="g182" />
    <g
       id="g184" />
    <g
       id="g186" />
    <g
       id="g188" />
    <g
       id="g190" />
    <g
       id="g192" />
    <g
       id="g194" />
    <g
       id="g196" />
    <g
       id="g198" />
    <g
       id="g200" />
    <g
       id="g202" />
    <g
       id="g204" />
    <g
       id="g206" />
    <g
       id="g208" />
    <g
       id="g210" />
    <g
       id="g212" />
    <g
       id="g214" />
    <g
       id="g216" />
    <g
       id="g218" />
    <g
       id="g220" />
    <g
       id="g222" />
    <g
       id="g224" />
    <g
       id="g226" />
    <g
       id="g228" />
    <g
       id="g230" />
    <g
       id="g232" />
    <g
       id="g234" />
    <g
       id="g236" />
    <g
       id="g238" />
    <g
       id="g240" />
    <g
       id="g242" />
    <g
       id="g244" />
    <g
       id="g246" />
  </g>
  <g
     style="fill:#000000; fill-opacity:0.0;  stroke:#000000; stroke-width:120000.000000; stroke-opacity:1;  stroke-linecap:round; stroke-linejoin:round;"
     id="g250" />
  <g
     style="fill:#000000; fill-opacity:0.0;  stroke:#000000; stroke-width:100000.000000; stroke-opacity:1;  stroke-linecap:round; stroke-linejoin:round;"
     id="g692">
    <path
       d="M156258143 22553500 L141758143 22553500 "
       id="path252" />
    <path
       d="M156258143 37053500 L156258143 22553500 "
       id="path254" />
    <path
       d="M141758143 22553500 L141758143 37053500 "
       id="path256" />
    <path
       d="M141758143 37053500 L156258143 37053500 "
       id="path258" />
    <path
       d="M191258143 56553500 L191258143 71053500 "
       id="path260" />
    <path
       d="M191258143 71053500 L205758143 71053500 "
       id="path262" />
    <path
       d="M205758143 56553500 L191258143 56553500 "
       id="path264" />
    <path
       d="M205758143 71053500 L205758143 56553500 "
       id="path266" />
    <path
       d="M196758143 54053500 L196758143 39553500 "
       id="path268" />
    <path
       d="M182258143 54053500 L196758143 54053500 "
       id="path270" />
    <path
       d="M182258143 39553500 L182258143 54053500 "
       id="path272" />
    <path
       d="M196758143 39553500 L182258143 39553500 "
       id="path274" />
    <path
       d="M21258143 37053500 L21258143 22553500 "
       id="path276" />
    <path
       d="M21258143 22553500 L6758143 22553500 "
       id="path278" />
    <path
       d="M6758143 22553500 L6758143 37053500 "
       id="path280" />
    <path
       d="M6758143 37053500 L21258143 37053500 "
       id="path282" />
    <path
       d="M153008143 73553500 L153008143 88053500 "
       id="path284" />
    <path
       d="M167508143 88053500 L167508143 73553500 "
       id="path286" />
    <path
       d="M167508143 73553500 L153008143 73553500 "
       id="path288" />
    <path
       d="M153008143 88053500 L167508143 88053500 "
       id="path290" />
    <path
       d="M57258143 22553500 L42758143 22553500 "
       id="path292" />
    <path
       d="M42758143 37053500 L57258143 37053500 "
       id="path294" />
    <path
       d="M57258143 37053500 L57258143 22553500 "
       id="path296" />
    <path
       d="M42758143 22553500 L42758143 37053500 "
       id="path298" />
    <path
       d="M192258143 22553500 L177758143 22553500 "
       id="path300" />
    <path
       d="M177758143 22553500 L177758143 37053500 "
       id="path302" />
    <path
       d="M192258143 37053500 L192258143 22553500 "
       id="path304" />
    <path
       d="M177758143 37053500 L192258143 37053500 "
       id="path306" />
    <path
       d="M213758143 37053500 L228258143 37053500 "
       id="path308" />
    <path
       d="M228258143 22553500 L213758143 22553500 "
       id="path310" />
    <path
       d="M213758143 22553500 L213758143 37053500 "
       id="path312" />
    <path
       d="M228258143 37053500 L228258143 22553500 "
       id="path314" />
    <path
       d="M92258143 56553500 L92258143 71053500 "
       id="path316" />
    <path
       d="M106758143 56553500 L92258143 56553500 "
       id="path318" />
    <path
       d="M92258143 71053500 L106758143 71053500 "
       id="path320" />
    <path
       d="M106758143 71053500 L106758143 56553500 "
       id="path322" />
    <path
       d="M173258143 71053500 L187758143 71053500 "
       id="path324" />
    <path
       d="M187758143 56553500 L173258143 56553500 "
       id="path326" />
    <path
       d="M187758143 71053500 L187758143 56553500 "
       id="path328" />
    <path
       d="M173258143 56553500 L173258143 71053500 "
       id="path330" />
    <path
       d="M54008143 73553500 L54008143 88053500 "
       id="path332" />
    <path
       d="M68508143 88053500 L68508143 73553500 "
       id="path334" />
    <path
       d="M54008143 88053500 L68508143 88053500 "
       id="path336" />
    <path
       d="M68508143 73553500 L54008143 73553500 "
       id="path338" />
    <path
       d="M174258143 37053500 L174258143 22553500 "
       id="path340" />
    <path
       d="M159758143 22553500 L159758143 37053500 "
       id="path342" />
    <path
       d="M174258143 22553500 L159758143 22553500 "
       id="path344" />
    <path
       d="M159758143 37053500 L174258143 37053500 "
       id="path346" />
    <path
       d="M115758143 54053500 L115758143 39553500 "
       id="path348" />
    <path
       d="M115758143 39553500 L101258143 39553500 "
       id="path350" />
    <path
       d="M101258143 39553500 L101258143 54053500 "
       id="path352" />
    <path
       d="M101258143 54053500 L115758143 54053500 "
       id="path354" />
    <path
       d="M93258143 22553500 L78758143 22553500 "
       id="path356" />
    <path
       d="M78758143 22553500 L78758143 37053500 "
       id="path358" />
    <path
       d="M78758143 37053500 L93258143 37053500 "
       id="path360" />
    <path
       d="M93258143 37053500 L93258143 22553500 "
       id="path362" />
    <path
       d="M38258143 56553500 L38258143 71053500 "
       id="path364" />
    <path
       d="M52758143 71053500 L52758143 56553500 "
       id="path366" />
    <path
       d="M52758143 56553500 L38258143 56553500 "
       id="path368" />
    <path
       d="M38258143 71053500 L52758143 71053500 "
       id="path370" />
    <path
       d="M226008143 71053500 L226008143 56553500 "
       id="path372" />
    <path
       d="M211508143 56553500 L211508143 71053500 "
       id="path374" />
    <path
       d="M211508143 71053500 L226008143 71053500 "
       id="path376" />
    <path
       d="M226008143 56553500 L211508143 56553500 "
       id="path378" />
    <path
       d="M214758143 54053500 L214758143 39553500 "
       id="path380" />
    <path
       d="M214758143 39553500 L200258143 39553500 "
       id="path382" />
    <path
       d="M200258143 39553500 L200258143 54053500 "
       id="path384" />
    <path
       d="M200258143 54053500 L214758143 54053500 "
       id="path386" />
    <path
       d="M75258143 37053500 L75258143 22553500 "
       id="path388" />
    <path
       d="M60758143 37053500 L75258143 37053500 "
       id="path390" />
    <path
       d="M75258143 22553500 L60758143 22553500 "
       id="path392" />
    <path
       d="M60758143 22553500 L60758143 37053500 "
       id="path394" />
    <path
       d="M100008143 88053500 L100008143 73553500 "
       id="path396" />
    <path
       d="M85508143 73553500 L85508143 88053500 "
       id="path398" />
    <path
       d="M100008143 73553500 L85508143 73553500 "
       id="path400" />
    <path
       d="M85508143 88053500 L100008143 88053500 "
       id="path402" />
    <path
       d="M46008143 73553500 L31508143 73553500 "
       id="path404" />
    <path
       d="M46008143 88053500 L46008143 73553500 "
       id="path406" />
    <path
       d="M31508143 88053500 L46008143 88053500 "
       id="path408" />
    <path
       d="M31508143 73553500 L31508143 88053500 "
       id="path410" />
    <path
       d="M137258143 71053500 L151758143 71053500 "
       id="path412" />
    <path
       d="M137258143 56553500 L137258143 71053500 "
       id="path414" />
    <path
       d="M151758143 56553500 L137258143 56553500 "
       id="path416" />
    <path
       d="M151758143 71053500 L151758143 56553500 "
       id="path418" />
    <path
       d="M74258143 71053500 L88758143 71053500 "
       id="path420" />
    <path
       d="M74258143 56553500 L74258143 71053500 "
       id="path422" />
    <path
       d="M88758143 56553500 L74258143 56553500 "
       id="path424" />
    <path
       d="M88758143 71053500 L88758143 56553500 "
       id="path426" />
    <path
       d="M155258143 71053500 L169758143 71053500 "
       id="path428" />
    <path
       d="M155258143 56553500 L155258143 71053500 "
       id="path430" />
    <path
       d="M169758143 56553500 L155258143 56553500 "
       id="path432" />
    <path
       d="M169758143 71053500 L169758143 56553500 "
       id="path434" />
    <path
       d="M96758143 22553500 L96758143 37053500 "
       id="path436" />
    <path
       d="M111258143 37053500 L111258143 22553500 "
       id="path438" />
    <path
       d="M111258143 22553500 L96758143 22553500 "
       id="path440" />
    <path
       d="M96758143 37053500 L111258143 37053500 "
       id="path442" />
    <path
       d="M24758143 22553500 L24758143 37053500 "
       id="path444" />
    <path
       d="M39258143 22553500 L24758143 22553500 "
       id="path446" />
    <path
       d="M39258143 37053500 L39258143 22553500 "
       id="path448" />
    <path
       d="M24758143 37053500 L39258143 37053500 "
       id="path450" />
    <path
       d="M160758143 39553500 L146258143 39553500 "
       id="path452" />
    <path
       d="M160758143 54053500 L160758143 39553500 "
       id="path454" />
    <path
       d="M146258143 54053500 L160758143 54053500 "
       id="path456" />
    <path
       d="M146258143 39553500 L146258143 54053500 "
       id="path458" />
    <path
       d="M29258143 39553500 L29258143 54053500 "
       id="path460" />
    <path
       d="M29258143 54053500 L43758143 54053500 "
       id="path462" />
    <path
       d="M43758143 39553500 L29258143 39553500 "
       id="path464" />
    <path
       d="M43758143 54053500 L43758143 39553500 "
       id="path466" />
    <path
       d="M195758143 22553500 L195758143 37053500 "
       id="path468" />
    <path
       d="M210258143 22553500 L195758143 22553500 "
       id="path470" />
    <path
       d="M195758143 37053500 L210258143 37053500 "
       id="path472" />
    <path
       d="M210258143 37053500 L210258143 22553500 "
       id="path474" />
    <path
       d="M56258143 71053500 L70758143 71053500 "
       id="path476" />
    <path
       d="M70758143 56553500 L56258143 56553500 "
       id="path478" />
    <path
       d="M56258143 56553500 L56258143 71053500 "
       id="path480" />
    <path
       d="M70758143 71053500 L70758143 56553500 "
       id="path482" />
    <path
       d="M178758143 54053500 L178758143 39553500 "
       id="path484" />
    <path
       d="M164258143 54053500 L178758143 54053500 "
       id="path486" />
    <path
       d="M164258143 39553500 L164258143 54053500 "
       id="path488" />
    <path
       d="M178758143 39553500 L164258143 39553500 "
       id="path490" />
    <path
       d="M9008143 54053500 L23508143 54053500 "
       id="path492" />
    <path
       d="M23508143 54053500 L23508143 39553500 "
       id="path494" />
    <path
       d="M9008143 39553500 L9008143 54053500 "
       id="path496" />
    <path
       d="M23508143 39553500 L9008143 39553500 "
       id="path498" />
    <path
       d="M13508143 56553500 L13508143 71053500 "
       id="path500" />
    <path
       d="M28008143 71053500 L28008143 56553500 "
       id="path502" />
    <path
       d="M13508143 71053500 L28008143 71053500 "
       id="path504" />
    <path
       d="M28008143 56553500 L13508143 56553500 "
       id="path506" />
    <path
       d="M234008143 37053500 L248508143 37053500 "
       id="path508" />
    <path
       d="M234008143 22553500 L234008143 37053500 "
       id="path510" />
    <path
       d="M248508143 37053500 L248508143 22553500 "
       id="path512" />
    <path
       d="M248508143 22553500 L234008143 22553500 "
       id="path514" />
    <path
       d="M9008143 73553500 L9008143 88053500 "
       id="path516" />
    <path
       d="M23508143 88053500 L23508143 73553500 "
       id="path518" />
    <path
       d="M9008143 88053500 L23508143 88053500 "
       id="path520" />
    <path
       d="M23508143 73553500 L9008143 73553500 "
       id="path522" />
    <path
       d="M234008143 71053500 L248508143 71053500 "
       id="path524" />
    <path
       d="M234008143 56553500 L234008143 71053500 "
       id="path526" />
    <path
       d="M248508143 56553500 L234008143 56553500 "
       id="path528" />
    <path
       d="M248508143 71053500 L248508143 56553500 "
       id="path530" />
    <path
       d="M227258143 39553500 L227258143 54053500 "
       id="path532" />
    <path
       d="M227258143 54053500 L241758143 54053500 "
       id="path534" />
    <path
       d="M241758143 54053500 L241758143 39553500 "
       id="path536" />
    <path
       d="M241758143 39553500 L227258143 39553500 "
       id="path538" />
    <path
       d="M65258143 54053500 L79758143 54053500 "
       id="path540" />
    <path
       d="M79758143 39553500 L65258143 39553500 "
       id="path542" />
    <path
       d="M79758143 54053500 L79758143 39553500 "
       id="path544" />
    <path
       d="M65258143 39553500 L65258143 54053500 "
       id="path546" />
    <path
       d="M61758143 39553500 L47258143 39553500 "
       id="path548" />
    <path
       d="M47258143 39553500 L47258143 54053500 "
       id="path550" />
    <path
       d="M47258143 54053500 L61758143 54053500 "
       id="path552" />
    <path
       d="M61758143 54053500 L61758143 39553500 "
       id="path554" />
    <path
       d="M83258143 54053500 L97758143 54053500 "
       id="path556" />
    <path
       d="M97758143 54053500 L97758143 39553500 "
       id="path558" />
    <path
       d="M83258143 39553500 L83258143 54053500 "
       id="path560" />
    <path
       d="M97758143 39553500 L83258143 39553500 "
       id="path562" />
    <path
       d="M231758143 88053500 L246258143 88053500 "
       id="path564" />
    <path
       d="M231758143 73553500 L231758143 88053500 "
       id="path566" />
    <path
       d="M246258143 73553500 L231758143 73553500 "
       id="path568" />
    <path
       d="M246258143 88053500 L246258143 73553500 "
       id="path570" />
    <g
       id="g572" />
    <g
       id="g574" />
    <g
       id="g576" />
    <g
       id="g578" />
    <g
       id="g580" />
    <g
       id="g582" />
    <g
       id="g584" />
    <g
       id="g586" />
    <g
       id="g588" />
    <g
       id="g590" />
    <g
       id="g592" />
    <g
       id="g594" />
    <g
       id="g596" />
    <g
       id="g598" />
    <g
       id="g600" />
    <g
       id="g602" />
    <g
       id="g604" />
    <g
       id="g606" />
    <g
       id="g608" />
    <g
       id="g610" />
    <g
       id="g612" />
    <g
       id="g614" />
    <g
       id="g616" />
    <g
       id="g618" />
    <g
       id="g620" />
    <g
       id="g622" />
    <g
       id="g624" />
    <g
       id="g626" />
    <g
       id="g628" />
    <g
       id="g630" />
    <g
       id="g632" />
    <g
       id="g634" />
    <g
       id="g636" />
    <g
       id="g638" />
    <g
       id="g640" />
    <g
       id="g642" />
    <g
       id="g644" />
    <g
       id="g646" />
    <g
       id="g648" />
    <g
       id="g650" />
    <g
       id="g652" />
    <g
       id="g654" />
    <g
       id="g656" />
    <g
       id="g658" />
    <g
       id="g660" />
    <g
       id="g662" />
    <g
       id="g664" />
    <g
       id="g666" />
    <g
       id="g668" />
    <g
       id="g670" />
    <g
       id="g672" />
    <g
       id="g674" />
    <g
       id="g676" />
    <g
       id="g678" />
    <g
       id="g680" />
    <g
       id="g682" />
    <g
       id="g684" />
    <g
       id="g686" />
    <g
       id="g688" />
    <g
       id="g690" />
  </g>
  <path
     d="m 140008130,36709751 a 1126850,1126850 0 0 0 1125010,1062499"
     id="path694"
     style="fill:#000000;fill-opacity:0;stroke:#000000;stroke-width:100000;stroke-linecap:round;stroke-linejoin:round;stroke-opacity:1" />
  <path
     d="m 113008150,89303430 a 2128500,2128500 0 0 0 2249990,-2124930"
     id="path696"
     style="fill:#000000;fill-opacity:0;stroke:#000000;stroke-width:100000;stroke-linecap:round;stroke-linejoin:round;stroke-opacity:1" />
  <path
     d="m 135508130,70709751 a 1126850,1126850 0 0 0 1125010,1062499"
     id="path698"
     style="fill:#000000;fill-opacity:0;stroke:#000000;stroke-width:100000;stroke-linecap:round;stroke-linejoin:round;stroke-opacity:1" />
  <path
     d="m 115258120,74959751 a 2253650,2253650 0 0 0 -2249980,-2125001"
     id="path700"
     style="fill:#000000;fill-opacity:0;stroke:#000000;stroke-width:100000;stroke-linecap:round;stroke-linejoin:round;stroke-opacity:1" />
  <path
     d="M 115258140,74959750 V 87178500"
     id="path702"
     style="fill:#000000;fill-opacity:0;stroke:#000000;stroke-width:100000;stroke-linecap:round;stroke-linejoin:round;stroke-opacity:1" />
  <path
     d="M 110758140,54772250 V 72834750"
     id="path704"
     style="fill:#000000;fill-opacity:0;stroke:#000000;stroke-width:100000;stroke-linecap:round;stroke-linejoin:round;stroke-opacity:1" />
  <path
     d="M 250258140,89303500 H 142258140"
     id="path706"
     style="fill:#000000;fill-opacity:0;stroke:#000000;stroke-width:100000;stroke-linecap:round;stroke-linejoin:round;stroke-opacity:1" />
  <path
     d="M 5008143,87050882 V 23043388"
     id="path708"
     style="fill:#000000;fill-opacity:0;stroke:#000000;stroke-width:86777.3;stroke-linecap:round;stroke-linejoin:round;stroke-opacity:1" />
  <path
     d="m 136633140,55303500 h 7875000"
     id="path710"
     style="fill:#000000;fill-opacity:0;stroke:#000000;stroke-width:100000;stroke-linecap:round;stroke-linejoin:round;stroke-opacity:1" />
  <path
     d="M 144508140,55303500 V 37772250"
     id="path712"
     style="fill:#000000;fill-opacity:0;stroke:#000000;stroke-width:100000;stroke-linecap:round;stroke-linejoin:round;stroke-opacity:1" />
  <path
     d="m 144508140,37772250 h -3375000"
     id="path714"
     style="fill:#000000;fill-opacity:0;stroke:#000000;stroke-width:100000;stroke-linecap:round;stroke-linejoin:round;stroke-opacity:1" />
  <path
     d="m 119758150,39897250 a 1126950,1126950 0 0 0 -1125010,-1062500"
     id="path716"
     style="fill:#000000;fill-opacity:0;stroke:#000000;stroke-width:100000;stroke-linecap:round;stroke-linejoin:round;stroke-opacity:1" />
  <path
     d="M 135508140,70709750 V 56366000"
     id="path718"
     style="fill:#000000;fill-opacity:0;stroke:#000000;stroke-width:100000;stroke-linecap:round;stroke-linejoin:round;stroke-opacity:1" />
  <path
     d="m 250258150,89303430 a 2128500,2128500 0 0 0 2249990,-2124930"
     id="path720"
     style="fill:#000000;fill-opacity:0;stroke:#000000;stroke-width:100000;stroke-linecap:round;stroke-linejoin:round;stroke-opacity:1" />
  <path
     d="m 136633150,55303438 a 1064200,1064200 0 0 0 -1125010,1062562"
     id="path722"
     style="fill:#000000;fill-opacity:0;stroke:#000000;stroke-width:100000;stroke-linecap:round;stroke-linejoin:round;stroke-opacity:1" />
  <path
     d="M 140008140,87178500 V 71772250"
     id="path724"
     style="fill:#000000;fill-opacity:0;stroke:#000000;stroke-width:100000;stroke-linecap:round;stroke-linejoin:round;stroke-opacity:1" />
  <path
     d="m 110758140,72834750 h 2250000"
     id="path726"
     style="fill:#000000;fill-opacity:0;stroke:#000000;stroke-width:100000;stroke-linecap:round;stroke-linejoin:round;stroke-opacity:1" />
  <path
     d="M 119758140,39897250 V 53709750"
     id="path728"
     style="fill:#000000;fill-opacity:0;stroke:#000000;stroke-width:100000;stroke-linecap:round;stroke-linejoin:round;stroke-opacity:1" />
  <path
     d="M 5008120.9,87178501 A 2253700,2253700 0 0 0 7258143,89303500"
     id="path730"
     style="fill:#000000;fill-opacity:0;stroke:#000000;stroke-width:100000;stroke-linecap:round;stroke-linejoin:round;stroke-opacity:1" />
  <path
     d="m 118633140,54772262 a 1064200,1064200 0 0 0 1125000,-1062512"
     id="path732"
     style="fill:#000000;fill-opacity:0;stroke:#000000;stroke-width:100000;stroke-linecap:round;stroke-linejoin:round;stroke-opacity:1" />
  <path
     d="m 140008120,87178501 a 2253700,2253700 0 0 0 2250020,2124999"
     id="path734"
     style="fill:#000000;fill-opacity:0;stroke:#000000;stroke-width:100000;stroke-linecap:round;stroke-linejoin:round;stroke-opacity:1" />
  <path
     d="m 142258140,21053476 a 2128399.9,2128400 0 0 0 -2250000,2125023"
     id="path736"
     style="fill:#000000;fill-opacity:0;stroke:#000000;stroke-width:100000;stroke-linecap:round;stroke-linejoin:round;stroke-opacity:1" />
  <path
     d="M 7258142.8,21053473 A 2128450,2128450 0 0 0 5008143,23178469"
     id="path738"
     style="fill:#000000;fill-opacity:0;stroke:#000000;stroke-width:100000;stroke-linecap:round;stroke-linejoin:round;stroke-opacity:1" />
  <path
     d="m 140008140,71772250 h -3375000"
     id="path740"
     style="fill:#000000;fill-opacity:0;stroke:#000000;stroke-width:100000;stroke-linecap:round;stroke-linejoin:round;stroke-opacity:1" />
  <path
     d="m 118633140,54772250 h -7875000"
     id="path742"
     style="fill:#000000;fill-opacity:0;stroke:#000000;stroke-width:100000;stroke-linecap:round;stroke-linejoin:round;stroke-opacity:1" />
  <path
     d="m 252508140,23174999 a 2125100,2125100 0 0 0 -2125000,-2125000"
     id="path744"
     style="fill:#000000;fill-opacity:0;stroke:#000000;stroke-width:100000;stroke-linecap:round;stroke-linejoin:round;stroke-opacity:1" />
  <path
     d="M 252508140,87020636 V 23043378"
     id="path746"
     style="fill:#000000;fill-opacity:0;stroke:#000000;stroke-width:86756.8;stroke-linecap:round;stroke-linejoin:round;stroke-opacity:1" />
  <path
     d="M 7175855.6,21049999 H 112998930"
     id="path748"
     style="fill:#000000;fill-opacity:0;stroke:#000000;stroke-width:100035;stroke-linecap:round;stroke-linejoin:round;stroke-opacity:1" />
  <path
     d="m 115258140,38834750 h 3375000"
     id="path750"
     style="fill:#000000;fill-opacity:0;stroke:#000000;stroke-width:100000;stroke-linecap:round;stroke-linejoin:round;stroke-opacity:1" />
  <path
     d="M 115258140,23032755 V 38764885"
     id="path752"
     style="fill:#000000;fill-opacity:0;stroke:#000000;stroke-width:65511.8;stroke-linecap:round;stroke-linejoin:round;stroke-opacity:1" />
  <path
     d="M 140008410,36800086 V 23020029"
     id="path754"
     style="fill:#000000;fill-opacity:0;stroke:#000000;stroke-width:63171.3;stroke-linecap:round;stroke-linejoin:round;stroke-opacity:1" />
  <path
     d="M 113008140,89303500 H 7258143"
     id="path756"
     style="fill:#000000;fill-opacity:0;stroke:#000000;stroke-width:100000;stroke-linecap:round;stroke-linejoin:round;stroke-opacity:1" />
  <path
     d="M 142258140,21049999 H 250383140"
     id="path758"
     style="fill:#000000;fill-opacity:0;stroke:#000000;stroke-width:100000;stroke-linecap:round;stroke-linejoin:round;stroke-opacity:1" />
  <path
     d="m 115258060,23175004 a 2253800,2253800 0 0 0 -2249920,-2125005"
     id="path760"
     style="fill:#000000;fill-opacity:0;stroke:#000000;stroke-width:100000;stroke-linecap:round;stroke-linejoin:round;stroke-opacity:1" />
</svg>
