<?xml version="1.0" encoding="UTF-8" standalone="no"?>
<!-- Created with Inkscape (http://www.inkscape.org/) -->

<svg
   width="45mm"
   height="15mm"
   viewBox="0 0 45 15"
   version="1.1"
   id="svg5"
   inkscape:version="1.2.2 (b0a84865, 2022-12-01)"
   sodipodi:docname="about.svg"
   xmlns:inkscape="http://www.inkscape.org/namespaces/inkscape"
   xmlns:sodipodi="http://sodipodi.sourceforge.net/DTD/sodipodi-0.dtd"
   xmlns="http://www.w3.org/2000/svg"
   xmlns:svg="http://www.w3.org/2000/svg">
  <sodipodi:namedview
     id="namedview7"
     pagecolor="#505050"
     bordercolor="#eeeeee"
     borderopacity="1"
     inkscape:showpageshadow="0"
     inkscape:pageopacity="0"
     inkscape:pagecheckerboard="0"
     inkscape:deskcolor="#505050"
     inkscape:document-units="mm"
     showgrid="false"
     inkscape:zoom="6.9384568"
     inkscape:cx="83.520013"
     inkscape:cy="14.124178"
     inkscape:window-width="1710"
     inkscape:window-height="1070"
     inkscape:window-x="0"
     inkscape:window-y="42"
     inkscape:window-maximized="0"
     inkscape:current-layer="layer1" />
  <defs
     id="defs2" />
  <g
     inkscape:label="Layer 1"
     inkscape:groupmode="layer"
     id="layer1">
    <g
       aria-label="Floppa40"
       id="text113"
       style="font-size:4.23333px;font-family:'a-otf shin go pro';-inkscape-font-specification:'a-otf shin go pro';stroke-width:0.264583">
      <path
         d="M 0.75000001,3.5338666 V 6.8697305 H 1.4484994 V 5.5954982 H 3.2307313 V 4.9562654 H 1.4484994 V 4.1688661 H 3.3069312 V 3.5338666 Z"
         id="path317" />
      <path
         d="M 3.717562,3.5338666 V 6.8697305 H 4.3652614 V 3.5338666 Z"
         id="path319" />
      <path
         d="m 6.1601874,4.3424326 c -1.0879658,0 -1.2742323,0.2370665 -1.2742323,1.3461989 0,1.1472323 0.4021663,1.2149656 1.3419655,1.2149656 1.0498658,0 1.206499,-0.3132664 1.206499,-1.3292655 0,-1.1133658 -0.359833,-1.231899 -1.2742322,-1.231899 z M 5.5251879,5.6335982 c 0,-0.6095995 0.029633,-0.6984994 0.6011328,-0.6984994 0.5587995,0 0.6646328,0.0127 0.6646328,0.6476994 0,0.6561661 -0.0381,0.7281327 -0.5968995,0.7281327 -0.6222995,0 -0.6688661,-0.042333 -0.6688661,-0.6773327 z"
         id="path321" />
      <path
         d="M 7.8281173,4.3762992 V 7.4369967 H 8.4673501 V 6.6495973 c 0.2031998,0.2243665 0.4529663,0.2539998 0.7662327,0.2539998 0.8678322,0 1.1006662,-0.334433 1.1006662,-1.219199 0,-0.8339659 -0.08043,-1.3419655 -1.0413996,-1.3419655 -0.5799662,0 -0.7111994,0.1396999 -0.833966,0.2836331 l -0.0127,-0.2497665 z m 1.2403656,0.5460996 c 0.4698996,0 0.6222995,0.046567 0.6222995,0.6773327 0,0.5714996 -0.029633,0.7323661 -0.6053662,0.7323661 -0.4656662,0 -0.6265328,-0.059267 -0.6265328,-0.6434661 0,-0.6392328 0.067733,-0.7662327 0.6095995,-0.7662327 z"
         id="path323" />
      <path
         d="m 10.727946,4.3762992 v 3.0606975 h 0.639233 V 6.6495973 c 0.203199,0.2243665 0.452966,0.2539998 0.766232,0.2539998 0.867833,0 1.100666,-0.334433 1.100666,-1.219199 0,-0.8339659 -0.08043,-1.3419655 -1.041399,-1.3419655 -0.579966,0 -0.7112,0.1396999 -0.833966,0.2836331 l -0.0127,-0.2497665 z m 1.240365,0.5460996 c 0.4699,0 0.6223,0.046567 0.6223,0.6773327 0,0.5714996 -0.02963,0.7323661 -0.605366,0.7323661 -0.465667,0 -0.626533,-0.059267 -0.626533,-0.6434661 0,-0.6392328 0.06773,-0.7662327 0.609599,-0.7662327 z"
         id="path325" />
      <path
         d="m 16.074639,5.1636986 c 0,-0.770466 -0.491066,-0.821266 -1.223432,-0.821266 -0.808566,0 -1.189566,0.1227666 -1.198032,0.8254993 h 0.626532 c -0.0085,-0.2624664 0.0889,-0.2836331 0.639233,-0.2836331 0.4191,0 0.554566,0.00423 0.554566,0.2370665 0,0.1650998 -0.09737,0.1693332 -0.165099,0.1735665 l -1.087966,0.0635 c -0.626533,0.0381 -0.6477,0.5164663 -0.6477,0.7789327 0,0.7450661 0.486833,0.7662327 1.028699,0.7662327 0.537633,0 0.745067,-0.0254 0.9017,-0.2793998 0.0042,0.0762 0.0085,0.1354666 0.0254,0.2455332 h 0.601133 c -0.0254,-0.1100666 -0.05503,-0.2582331 -0.05503,-0.5841995 z m -0.592666,0.821266 c 0,0.3513663 -0.334433,0.3767663 -0.723899,0.3767663 -0.423333,0 -0.575733,-0.0254 -0.575733,-0.2412998 0,-0.1058332 0.0042,-0.2370665 0.270933,-0.2539998 l 0.791633,-0.046567 c 0.173566,-0.00847 0.215899,-0.067733 0.237066,-0.1015999 z"
         id="path327" />
      <path
         d="m 18.123569,3.5338666 -1.693332,1.9938983 v 0.6900328 h 1.972732 v 0.6519328 h 0.690032 V 6.2177977 h 0.541867 V 5.5827982 H 19.093001 V 3.5338666 Z m 0.2794,2.0489316 h -1.261533 l 1.261533,-1.4731987 z"
         id="path329" />
      <path
         d="M 23.000359,5.2017985 C 23.000359,3.7243665 22.716726,3.5 21.46366,3.5 c -1.240365,0 -1.502832,0.2666997 -1.502832,1.7017985 0,1.4774321 0.287867,1.7017986 1.536699,1.7017986 1.244599,0 1.502832,-0.2666998 1.502832,-1.7017986 z M 21.480594,4.1349994 c 0.414866,0 0.664633,0.021167 0.749299,0.2455332 0.05927,0.1608665 0.07197,0.6900327 0.07197,0.8889992 0,0.9228659 -0.08467,0.9990658 -0.770466,0.9990658 -0.8001,0 -0.872066,-0.0254 -0.872066,-1.0583324 0,-1.0371658 0.07197,-1.0752658 0.821266,-1.0752658 z"
         id="path331" />
    </g>
    <g
       aria-label="Created by Alex T &amp; Gosha T."
       id="text275"
       style="font-size:1.76389px;font-family:'a-otf shin go pro';-inkscape-font-specification:'a-otf shin go pro';stroke-width:0.264583">
      <path
         d="M 2.0164731,8.2685838 C 2.0129453,7.8117362 1.7906951,7.7500001 1.3726532,7.7500001 c -0.56444481,0 -0.62265318,0.224014 -0.62265318,0.7320143 0,0.5891393 0.16227789,0.6861533 0.67556988,0.6861533 0.4956531,0 0.5979587,-0.1640418 0.6014865,-0.5485698 H 1.7342507 c -0.00353,0.2592918 -0.047625,0.2839863 -0.352778,0.2839863 -0.321028,0 -0.3404308,-0.074083 -0.3404308,-0.4568476 0,-0.400403 0.047625,-0.432153 0.3580697,-0.432153 0.2310695,0 0.3280835,0.024695 0.3298474,0.2540002 z"
         id="path334" />
      <path
         d="M 2.2016791,8.1151253 V 9.1540565 H 2.4680265 V 8.536695 c 0,-0.1040695 0.079375,-0.1516945 0.1552223,-0.1658056 0.033514,-0.00706 0.065264,-0.012347 0.3298474,-0.00882 V 8.1027781 C 2.6250127,8.1010142 2.5491654,8.0992503 2.4680265,8.2191948 L 2.459207,8.1151253 Z"
         id="path336" />
      <path
         d="M 4.1278435,8.7113202 C 4.1348991,8.42557 4.1154963,8.3620699 4.0925657,8.3073893 4.0167185,8.1257087 3.8579684,8.1010142 3.5863293,8.1010142 c -0.4797781,0 -0.5221114,0.1587501 -0.5221114,0.560917 0,0.4445003 0.1375834,0.5062365 0.5644448,0.5062365 0.3298474,0 0.4868336,-0.0635 0.497417,-0.3721808 H 3.8579684 c -0.00353,0.091722 -0.00529,0.1305278 -0.2469446,0.1305278 -0.273403,0 -0.2822224,-0.026458 -0.2804585,-0.2151945 z M 3.3305653,8.5190561 c 0.00706,-0.1252362 0.00882,-0.176389 0.2575279,-0.176389 0.2487085,0 0.2663474,0.026458 0.2716391,0.176389 z"
         id="path338" />
      <path
         d="m 5.3096491,8.4432089 c 0,-0.321028 -0.2046113,-0.3421947 -0.5097642,-0.3421947 -0.336903,0 -0.4956531,0.051153 -0.4991809,0.3439586 h 0.2610557 c -0.00353,-0.1093612 0.037042,-0.1181807 0.2663474,-0.1181807 0.1746251,0 0.2310696,0.00176 0.2310696,0.098778 0,0.068792 -0.04057,0.070556 -0.068792,0.072319 l -0.4533198,0.026458 c -0.2610557,0.015875 -0.2698751,0.2151946 -0.2698751,0.3245558 0,0.3104446 0.2028473,0.3192641 0.4286252,0.3192641 0.2240141,0 0.3104447,-0.010583 0.3757086,-0.1164168 0.00176,0.03175 0.00353,0.056444 0.010583,0.1023056 H 5.3325796 C 5.3219963,9.1081954 5.3096491,9.0464593 5.3096491,8.9106397 Z M 5.0627045,8.7854035 c 0,0.1464029 -0.1393473,0.1569862 -0.3016252,0.1569862 -0.176389,0 -0.2398891,-0.010583 -0.2398891,-0.1005417 0,-0.044097 0.00176,-0.098778 0.112889,-0.1058334 l 0.3298474,-0.019403 c 0.072319,-0.00353 0.089958,-0.028222 0.098778,-0.042333 z"
         id="path340" />
      <path
         d="M 5.6641902,8.1151253 H 5.4437039 v 0.2487085 h 0.2204863 v 0.5221115 c 0,0.224014 0.093486,0.2839863 0.4533197,0.2839863 0.024694,0 0.084667,0 0.144639,-0.00706 V 8.9141675 c -0.029986,0.00176 -0.049389,0.00353 -0.144639,0.00353 -0.1587501,0 -0.1834446,-0.021167 -0.1834446,-0.1181806 V 8.3638338 H 6.2515655 V 8.1151253 H 5.9340653 V 7.8646529 H 5.6641902 Z"
         id="path342" />
      <path
         d="M 7.4263131,8.7113202 C 7.4333686,8.42557 7.4139659,8.3620699 7.3910353,8.3073893 7.315188,8.1257087 7.1564379,8.1010142 6.8847989,8.1010142 c -0.4797781,0 -0.5221115,0.1587501 -0.5221115,0.560917 0,0.4445003 0.1375834,0.5062365 0.5644448,0.5062365 0.3298474,0 0.4868337,-0.0635 0.497417,-0.3721808 H 7.1564379 c -0.00353,0.091722 -0.00529,0.1305278 -0.2469446,0.1305278 -0.2734029,0 -0.2822224,-0.026458 -0.2804585,-0.2151945 z M 6.6290348,8.5190561 c 0.00706,-0.1252362 0.00882,-0.176389 0.2575279,-0.176389 0.2487085,0 0.2663474,0.026458 0.2716391,0.176389 z"
         id="path344" />
      <path
         d="M 8.3470624,7.7641112 V 8.2068476 C 8.3064929,8.1645142 8.2465207,8.0992503 8.0225066,8.0992503 c -0.3898196,0 -0.4515558,0.1834446 -0.4515558,0.5168198 0,0.2963335 0.021167,0.5538615 0.4286253,0.5538615 0.2663474,0 0.3263196,-0.079375 0.3580697,-0.1181807 l 0.00882,0.1023056 H 8.6151737 V 7.7641112 Z M 8.0983539,8.3373755 c 0.2169585,0 0.2540002,0.038806 0.2540002,0.3245557 0,0.2451807 -0.054681,0.2716391 -0.2786946,0.2716391 -0.225778,0 -0.2363613,-0.068792 -0.2363613,-0.3263197 0,-0.2310696 0.045861,-0.2698751 0.2610557,-0.2698751 z"
         id="path346" />
      <path
         d="m 9.3842259,7.7641112 v 1.3899453 h 0.2469446 l 0.00882,-0.1023056 c 0.03175,0.038806 0.091722,0.1181807 0.3580697,0.1181807 0.4092224,0 0.4303894,-0.257528 0.4303894,-0.5538615 0,-0.3333752 -0.06174,-0.5168198 -0.45332,-0.5168198 -0.224014,0 -0.2839863,0.065264 -0.3245557,0.1075973 V 7.7641112 Z m 0.5150559,0.5732643 c 0.2151942,0 0.2610552,0.038806 0.2610552,0.2698751 0,0.257528 -0.01058,0.3263197 -0.2363608,0.3263197 -0.224014,0 -0.2786946,-0.026458 -0.2786946,-0.2716391 0,-0.2857502 0.037042,-0.3245557 0.2540002,-0.3245557 z"
         id="path348" />
      <path
         d="m 10.530753,8.1151253 0.460375,0.9084034 -0.01587,0.04057 c -0.02646,0.068792 -0.06174,0.091722 -0.169333,0.091722 -0.0053,0 -0.07938,0 -0.178153,-0.012347 v 0.2363613 c 0.02646,0.00353 0.07232,0.010583 0.176389,0.010583 0.289278,0 0.328084,-0.070556 0.400403,-0.2310696 l 0.47625,-1.0442229 H 11.37742 l -0.259291,0.626181 -0.276931,-0.626181 z"
         id="path350" />
      <path
         d="M 13.465862,9.1540565 H 13.79571 L 13.254195,7.7641112 h -0.379236 l -0.543278,1.3899453 h 0.331611 l 0.109361,-0.3016251 h 0.583848 z M 13.063695,8.0428058 13.264779,8.601959 h -0.402167 z"
         id="path352" />
      <path
         d="m 13.973861,7.7641112 v 1.3899453 h 0.269876 V 7.7641112 Z"
         id="path354" />
      <path
         d="m 15.524318,8.7113202 c 0.0071,-0.2857502 -0.01235,-0.3492503 -0.03528,-0.4039309 -0.07585,-0.1816806 -0.234598,-0.2063751 -0.506237,-0.2063751 -0.479778,0 -0.522111,0.1587501 -0.522111,0.560917 0,0.4445003 0.137583,0.5062365 0.564445,0.5062365 0.329847,0 0.486833,-0.0635 0.497416,-0.3721808 h -0.268111 c -0.0035,0.091722 -0.0053,0.1305278 -0.246944,0.1305278 -0.273403,0 -0.282223,-0.026458 -0.280459,-0.2151945 z M 14.72704,8.5190561 c 0.0071,-0.1252362 0.0088,-0.176389 0.257528,-0.176389 0.248709,0 0.266347,0.026458 0.271639,0.176389 z"
         id="path356" />
      <path
         d="m 15.663664,8.1151253 0.321028,0.4903615 -0.356305,0.5485697 h 0.324555 l 0.248709,-0.4233336 0.245181,0.4233336 h 0.322791 L 16.422137,8.6107784 16.746693,8.1151253 H 16.425665 L 16.201651,8.4873061 15.986456,8.1151253 Z"
         id="path358" />
      <path
         d="M 18.692259,8.0286947 V 7.7641112 H 17.42755 v 0.2645835 h 0.486833 v 1.1253618 h 0.289278 V 8.0286947 Z"
         id="path360" />
      <path
         d="m 20.554923,8.1874448 c 0.0018,-0.3421947 -0.105833,-0.4374447 -0.537986,-0.4374447 -0.418042,0 -0.504473,0.1181806 -0.504473,0.3421947 0,0.1799167 0.07585,0.2293057 0.127,0.2575279 -0.241652,0.079375 -0.254,0.2663474 -0.254,0.4092225 0,0.3951113 0.280459,0.4092225 0.582084,0.4092225 0.269875,0 0.335139,-0.017639 0.435681,-0.072319 l 0.05644,0.058208 h 0.377473 L 20.611368,8.9318064 c 0.0388,-0.054681 0.07232,-0.1093612 0.07232,-0.2786946 v -0.160514 h -0.264583 v 0.097014 c 0,0.098778 0,0.1093612 -0.01411,0.1464029 L 19.859951,8.2280143 c -0.0088,-0.00882 -0.07232,-0.067028 -0.07232,-0.1164168 0,-0.1023056 0.107597,-0.1023056 0.227542,-0.1023056 0.23107,0 0.259292,0.028222 0.257528,0.1781529 z m -0.352778,0.7002644 c -0.05644,0.024694 -0.167569,0.024694 -0.202847,0.024694 -0.26282,0 -0.340431,-0.024694 -0.340431,-0.1710973 0,-0.054681 0.0035,-0.1640418 0.144639,-0.208139 z"
         id="path362" />
      <path
         d="m 22.869141,8.2385976 c 0.0018,-0.4780142 -0.310444,-0.4885975 -0.694972,-0.4885975 -0.26282,0 -0.38982,0.024694 -0.500945,0.1234723 -0.100542,0.091722 -0.137584,0.224014 -0.137584,0.5750281 0,0.3227919 0.02293,0.4374448 0.09701,0.5503337 0.09172,0.1411112 0.245181,0.1693335 0.601487,0.1693335 0.216958,0 0.504472,0 0.597959,-0.2363613 0.04233,-0.1075973 0.04233,-0.1411112 0.0441,-0.5432781 h -0.686153 v 0.2345974 h 0.398639 c 0.0053,0.2804585 -0.09701,0.2804585 -0.398639,0.2804585 -0.361598,0 -0.365126,-0.091722 -0.365126,-0.4127503 0,-0.4550836 0.03881,-0.4762503 0.377473,-0.4762503 0.254,0 0.382764,0 0.375708,0.224014 z"
         id="path364" />
      <path
         d="m 23.578223,8.1010142 c -0.45332,0 -0.530931,0.098778 -0.530931,0.560917 0,0.4780142 0.16757,0.5062365 0.559153,0.5062365 0.437445,0 0.502709,-0.1305279 0.502709,-0.5538615 0,-0.4639031 -0.149931,-0.513292 -0.530931,-0.513292 z m -0.264584,0.5379865 c 0,-0.2540002 0.01235,-0.2910419 0.250473,-0.2910419 0.232833,0 0.276931,0.00529 0.276931,0.2698752 0,0.2734029 -0.01587,0.3033891 -0.248709,0.3033891 -0.259292,0 -0.278695,-0.017639 -0.278695,-0.2822224 z"
         id="path366" />
      <path
         d="m 25.276848,8.4432089 c -0.0018,-0.2363613 -0.04057,-0.3421947 -0.508001,-0.3421947 -0.280458,0 -0.504472,0.026458 -0.504472,0.3263197 0,0.1252361 0.04233,0.2645835 0.238125,0.2822224 l 0.451556,0.038806 c 0.08467,0.00706 0.09701,0.037042 0.09701,0.082903 0,0.070556 0,0.1093612 -0.257528,0.1093612 -0.06526,0 -0.216959,0 -0.259292,-0.038806 -0.01764,-0.015875 -0.01764,-0.024695 -0.01764,-0.1093612 h -0.257528 c 0,0.3192641 0.107598,0.3757086 0.536223,0.3757086 0.298097,0 0.518583,-0.014111 0.518583,-0.3298475 0,-0.2222501 -0.09172,-0.2928057 -0.266347,-0.3069168 L 24.60657,8.4978895 c -0.0829,-0.00706 -0.08467,-0.038806 -0.08467,-0.068792 0,-0.098778 0.07938,-0.098778 0.246944,-0.098778 0.248709,0 0.248709,0.035278 0.246945,0.112889 z"
         id="path368" />
      <path
         d="m 25.48146,7.7641112 v 1.3899453 h 0.268111 V 8.5472784 c 0,-0.1640418 0.07056,-0.2028474 0.266347,-0.2028474 0.127,0 0.224014,0.015875 0.224014,0.1587501 V 9.1540565 H 26.50628 V 8.4626117 c 0,-0.257528 -0.10407,-0.3615975 -0.395112,-0.3615975 -0.275166,0 -0.335139,0.081139 -0.363361,0.1199445 V 7.7641112 Z"
         id="path370" />
      <path
         d="m 27.709251,8.4432089 c 0,-0.321028 -0.204611,-0.3421947 -0.509764,-0.3421947 -0.336903,0 -0.495653,0.051153 -0.499181,0.3439586 h 0.261056 c -0.0035,-0.1093612 0.03704,-0.1181807 0.266348,-0.1181807 0.174625,0 0.231069,0.00176 0.231069,0.098778 0,0.068792 -0.04057,0.070556 -0.06879,0.072319 l -0.453319,0.026458 c -0.261056,0.015875 -0.269876,0.2151946 -0.269876,0.3245558 0,0.3104446 0.202848,0.3192641 0.428626,0.3192641 0.224014,0 0.310444,-0.010583 0.375708,-0.1164168 0.0018,0.03175 0.0035,0.056444 0.01058,0.1023056 h 0.250472 c -0.01058,-0.045861 -0.02293,-0.1075972 -0.02293,-0.2434168 z m -0.246944,0.3421946 c 0,0.1464029 -0.139347,0.1569862 -0.301625,0.1569862 -0.176389,0 -0.239889,-0.010583 -0.239889,-0.1005417 0,-0.044097 0.0018,-0.098778 0.112889,-0.1058334 l 0.329847,-0.019403 c 0.07232,-0.00353 0.08996,-0.028222 0.09878,-0.042333 z"
         id="path372" />
      <path
         d="M 29.695387,8.0286947 V 7.7641112 h -1.264709 v 0.2645835 h 0.486833 v 1.1253618 h 0.289278 V 8.0286947 Z"
         id="path374" />
      <path
         d="m 29.861191,8.8559591 v 0.2980974 h 0.298097 V 8.8559591 Z"
         id="path376" />
    </g>
    <g
       aria-label="github.com/gosher-studios/floppa40"
       id="text279"
       style="font-size:1.76389px;font-family:'a-otf shin go pro';-inkscape-font-specification:'a-otf shin go pro';stroke-width:0.264583">
      <path
         d="m 1.9494452,10.056828 c -0.1852085,-0.01058 -0.2328335,0.05292 -0.2592918,0.09349 -0.074083,-0.04763 -0.289278,-0.04763 -0.3898197,-0.04763 -0.31573635,0 -0.48154202,0.03704 -0.48154202,0.294569 0,0.03175 0,0.13582 0.0529167,0.197556 -0.0529167,0.01764 -0.11818063,0.08114 -0.11818063,0.201084 0,0.0441 0.007056,0.125236 0.0917223,0.156986 -0.0299861,0.01588 -0.0952501,0.04763 -0.0952501,0.186972 0,0.208139 0.15522232,0.252236 0.57855593,0.252236 0.4533197,0 0.576792,-0.05468 0.576792,-0.28575 0,-0.186972 -0.067028,-0.257528 -0.2575279,-0.271639 L 1.0586807,10.79237 c -0.038806,-0.0035 -0.0652639,-0.01587 -0.0652639,-0.05821 0,-0.02822 0.0176389,-0.04233 0.0335139,-0.05292 0.077611,0.02646 0.2169585,0.03175 0.3333752,0.03175 0.3492502,0 0.4780142,-0.03881 0.4780142,-0.289278 0,-0.06703 -0.00706,-0.0829 -0.021167,-0.114653 0.021167,-0.02822 0.042333,-0.03704 0.1322918,-0.03704 z m -0.6173615,0.257528 c 0.2169585,0 0.255764,0.01587 0.255764,0.08996 0,0.08996 -0.029986,0.100542 -0.2328334,0.100542 -0.2681113,0 -0.2910419,-0.01587 -0.2910419,-0.09349 0,-0.09349 0.051153,-0.09701 0.2681113,-0.09701 z m 0.2099029,0.703792 c 0.098778,0.0071 0.112889,0.03528 0.112889,0.07056 0,0.07232 -0.019403,0.08819 -0.2839863,0.08819 -0.37218083,0 -0.37570861,-0.02293 -0.37570861,-0.08819 0,-0.09172 0.0705556,-0.102305 0.0758473,-0.102305 z"
         id="path379" />
      <path
         d="M 2.1346516,9.7657859 V 10.009203 H 2.4133463 V 9.7657859 Z m 0.00529,0.3510141 v 1.038931 H 2.4098185 V 10.1168 Z"
         id="path381" />
      <path
         d="M 2.8102191,10.1168 H 2.5897329 v 0.248708 h 0.2204862 v 0.522112 c 0,0.224014 0.093486,0.283986 0.4533197,0.283986 0.024694,0 0.084667,0 0.144639,-0.0071 v -0.248709 c -0.029986,0.0018 -0.049389,0.0035 -0.144639,0.0035 -0.1587501,0 -0.1834445,-0.02117 -0.1834445,-0.118181 V 10.365508 H 3.3975945 V 10.1168 H 3.0800943 V 9.8663276 H 2.8102191 Z"
         id="path383" />
      <path
         d="m 3.5263552,9.7657859 v 1.3899451 h 0.2681113 v -0.606778 c 0,-0.164042 0.070556,-0.202847 0.2663474,-0.202847 0.1270001,0 0.2240141,0.01587 0.2240141,0.15875 v 0.650875 h 0.2663473 v -0.691445 c 0,-0.257528 -0.1040695,-0.361597 -0.3951113,-0.361597 -0.2751669,0 -0.3351391,0.08114 -0.3633614,0.119944 V 9.7657859 Z"
         id="path385" />
      <path
         d="M 5.759439,11.155731 V 10.1168 H 5.4930916 v 0.608542 c 0,0.137583 -0.045861,0.19932 -0.2610557,0.19932 -0.1852085,0 -0.2310696,-0.05115 -0.2310696,-0.146403 V 10.1168 H 4.7346189 v 0.714375 c 0,0.268112 0.1569862,0.338667 0.4056947,0.338667 0.1957918,0 0.2963335,-0.03351 0.3615974,-0.127 l 0.00353,0.112889 z"
         id="path387" />
      <path
         d="m 5.9428825,9.7657859 v 1.3899451 h 0.2469446 l 0.00882,-0.102305 c 0.03175,0.0388 0.091722,0.11818 0.3580696,0.11818 0.4092225,0 0.4303892,-0.257528 0.4303892,-0.553861 0,-0.333375 -0.061736,-0.51682 -0.4533197,-0.51682 -0.2240141,0 -0.2839863,0.06526 -0.3245558,0.107597 V 9.7657859 Z M 6.4579384,10.33905 c 0.2151946,0 0.2610557,0.03881 0.2610557,0.269875 0,0.257528 -0.010583,0.32632 -0.2363612,0.32632 -0.2240141,0 -0.2786947,-0.02646 -0.2786947,-0.271639 0,-0.28575 0.037042,-0.324556 0.2540002,-0.324556 z"
         id="path389" />
      <path
         d="m 7.1881881,10.857634 v 0.298097 h 0.2980974 v -0.298097 z"
         id="path391" />
      <path
         d="m 8.7439368,10.510147 c -0.00882,-0.303389 -0.081139,-0.407458 -0.5485698,-0.407458 -0.433917,0 -0.5044726,0.137583 -0.5044726,0.534459 0,0.449791 0.112889,0.532694 0.5538615,0.532694 0.3545419,0 0.5027087,-0.06526 0.5027087,-0.432153 H 8.4811172 c 0.00176,0.185209 -0.07232,0.185209 -0.2610558,0.185209 -0.2434168,0 -0.2610557,-0.03881 -0.2610557,-0.283987 0,-0.280458 0.033514,-0.289278 0.2910419,-0.289278 0.1675695,0 0.2293057,0.01764 0.2275418,0.160514 z"
         id="path393" />
      <path
         d="m 9.4283253,10.102689 c -0.4533197,0 -0.5309309,0.09878 -0.5309309,0.560917 0,0.478014 0.1675696,0.506236 0.5591532,0.506236 0.4374447,0 0.5027086,-0.130528 0.5027086,-0.553861 0,-0.463903 -0.1499306,-0.513292 -0.5309309,-0.513292 z m -0.2645835,0.537986 c 0,-0.254 0.012347,-0.291042 0.2504724,-0.291042 0.2328335,0 0.2769307,0.0053 0.2769307,0.269876 0,0.273403 -0.015875,0.303389 -0.2487085,0.303389 -0.2592918,0 -0.2786946,-0.01764 -0.2786946,-0.282223 z"
         id="path395" />
      <path
         d="m 10.130352,10.1168 v 1.038931 h 0.268112 v -0.635 c 0,-0.05997 0,-0.16757 0.178152,-0.16757 0.155223,0 0.155223,0.09349 0.155223,0.137584 v 0.664986 h 0.266347 v -0.647347 c 0,-0.119945 0.06703,-0.155223 0.179917,-0.155223 0.100542,0 0.151694,0.04057 0.151694,0.125236 v 0.677334 h 0.268112 v -0.756709 c 0,-0.15875 -0.05997,-0.298097 -0.32632,-0.298097 -0.03528,0 -0.229306,0.0018 -0.305153,0.142875 -0.04233,-0.06879 -0.08467,-0.141111 -0.278694,-0.141111 -0.197556,0 -0.264584,0.08467 -0.29457,0.125236 L 10.38788,10.1168 Z"
         id="path397" />
      <path
         d="m 12.308754,9.7657859 -0.576792,1.3899451 h 0.234597 l 0.576792,-1.3899451 z"
         id="path399" />
      <path
         d="m 13.869793,10.056828 c -0.185208,-0.01058 -0.232833,0.05292 -0.259291,0.09349 -0.07408,-0.04763 -0.289278,-0.04763 -0.38982,-0.04763 -0.315736,0 -0.481542,0.03704 -0.481542,0.294569 0,0.03175 0,0.13582 0.05292,0.197556 -0.05292,0.01764 -0.118181,0.08114 -0.118181,0.201084 0,0.0441 0.0071,0.125236 0.09172,0.156986 -0.02999,0.01588 -0.09525,0.04763 -0.09525,0.186972 0,0.208139 0.155222,0.252236 0.578556,0.252236 0.45332,0 0.576792,-0.05468 0.576792,-0.28575 0,-0.186972 -0.06703,-0.257528 -0.257528,-0.271639 l -0.589139,-0.04233 c -0.03881,-0.0035 -0.06526,-0.01587 -0.06526,-0.05821 0,-0.02822 0.01764,-0.04233 0.03351,-0.05292 0.07761,0.02646 0.216958,0.03175 0.333375,0.03175 0.34925,0 0.478014,-0.03881 0.478014,-0.289278 0,-0.06703 -0.0071,-0.0829 -0.02117,-0.114653 0.02117,-0.02822 0.04233,-0.03704 0.132291,-0.03704 z m -0.617361,0.257528 c 0.216958,0 0.255764,0.01587 0.255764,0.08996 0,0.08996 -0.02999,0.100542 -0.232834,0.100542 -0.268111,0 -0.291041,-0.01587 -0.291041,-0.09349 0,-0.09349 0.05115,-0.09701 0.268111,-0.09701 z m 0.209903,0.703792 c 0.09878,0.0071 0.112889,0.03528 0.112889,0.07056 0,0.07232 -0.0194,0.08819 -0.283987,0.08819 -0.37218,0 -0.375708,-0.02293 -0.375708,-0.08819 0,-0.09172 0.07056,-0.102305 0.07585,-0.102305 z"
         id="path401" />
      <path
         d="m 14.52243,10.102689 c -0.45332,0 -0.530931,0.09878 -0.530931,0.560917 0,0.478014 0.16757,0.506236 0.559153,0.506236 0.437445,0 0.502709,-0.130528 0.502709,-0.553861 0,-0.463903 -0.149931,-0.513292 -0.530931,-0.513292 z m -0.264583,0.537986 c 0,-0.254 0.01235,-0.291042 0.250472,-0.291042 0.232833,0 0.276931,0.0053 0.276931,0.269876 0,0.273403 -0.01587,0.303389 -0.248709,0.303389 -0.259292,0 -0.278694,-0.01764 -0.278694,-0.282223 z"
         id="path403" />
      <path
         d="m 16.221056,10.444884 c -0.0018,-0.236362 -0.04057,-0.342195 -0.508,-0.342195 -0.280459,0 -0.504473,0.02646 -0.504473,0.32632 0,0.125236 0.04233,0.264583 0.238125,0.282222 l 0.451556,0.0388 c 0.08467,0.0071 0.09701,0.03704 0.09701,0.0829 0,0.07056 0,0.109362 -0.257528,0.109362 -0.06526,0 -0.216958,0 -0.259292,-0.03881 -0.01764,-0.01587 -0.01764,-0.02469 -0.01764,-0.109361 h -0.257528 c 0,0.319264 0.107598,0.375708 0.536223,0.375708 0.298097,0 0.518584,-0.01411 0.518584,-0.329847 0,-0.22225 -0.09172,-0.292806 -0.266348,-0.306917 l -0.440972,-0.03351 c -0.0829,-0.0071 -0.08467,-0.0388 -0.08467,-0.06879 0,-0.09878 0.07938,-0.09878 0.246945,-0.09878 0.248708,0 0.248708,0.03528 0.246944,0.112889 z"
         id="path405" />
      <path
         d="m 16.425666,9.7657859 v 1.3899451 h 0.268111 v -0.606778 c 0,-0.164042 0.07056,-0.202847 0.266348,-0.202847 0.127,0 0.224014,0.01587 0.224014,0.15875 v 0.650875 h 0.266347 v -0.691445 c 0,-0.257528 -0.10407,-0.361597 -0.395111,-0.361597 -0.275167,0 -0.33514,0.08114 -0.363362,0.119944 V 9.7657859 Z"
         id="path407" />
      <path
         d="m 18.679917,10.712995 c 0.0071,-0.28575 -0.01235,-0.34925 -0.03528,-0.403931 -0.07585,-0.181681 -0.234597,-0.206375 -0.506236,-0.206375 -0.479778,0 -0.522112,0.15875 -0.522112,0.560917 0,0.4445 0.137584,0.506236 0.564445,0.506236 0.329848,0 0.486834,-0.0635 0.497417,-0.37218 h -0.268111 c -0.0035,0.09172 -0.0053,0.130527 -0.246945,0.130527 -0.273403,0 -0.282222,-0.02646 -0.280458,-0.215194 z m -0.797278,-0.192264 c 0.0071,-0.125236 0.0088,-0.176389 0.257528,-0.176389 0.248708,0 0.266347,0.02646 0.271639,0.176389 z"
         id="path409" />
      <path
         d="m 18.843957,10.1168 v 1.038931 h 0.266348 V 10.53837 c 0,-0.10407 0.07937,-0.151695 0.155222,-0.165806 0.03351,-0.0071 0.06526,-0.01235 0.329848,-0.0088 v -0.259292 c -0.328084,-0.0018 -0.403931,-0.0035 -0.48507,0.116416 l -0.0088,-0.104069 z"
         id="path411" />
      <path
         d="m 19.678273,10.503092 v 0.266347 h 0.562681 v -0.266347 z"
         id="path413" />
      <path
         d="m 21.380425,10.444884 c -0.0018,-0.236362 -0.04057,-0.342195 -0.508,-0.342195 -0.280459,0 -0.504473,0.02646 -0.504473,0.32632 0,0.125236 0.04233,0.264583 0.238126,0.282222 l 0.451555,0.0388 c 0.08467,0.0071 0.09701,0.03704 0.09701,0.0829 0,0.07056 0,0.109362 -0.257528,0.109362 -0.06526,0 -0.216958,0 -0.259291,-0.03881 -0.01764,-0.01587 -0.01764,-0.02469 -0.01764,-0.109361 h -0.257528 c 0,0.319264 0.107597,0.375708 0.536222,0.375708 0.298098,0 0.518584,-0.01411 0.518584,-0.329847 0,-0.22225 -0.09172,-0.292806 -0.266347,-0.306917 l -0.440973,-0.03351 c -0.0829,-0.0071 -0.08467,-0.0388 -0.08467,-0.06879 0,-0.09878 0.07937,-0.09878 0.246945,-0.09878 0.248708,0 0.248708,0.03528 0.246945,0.112889 z"
         id="path415" />
      <path
         d="m 21.750841,10.1168 h -0.220486 v 0.248708 h 0.220486 v 0.522112 c 0,0.224014 0.09349,0.283986 0.45332,0.283986 0.02469,0 0.08467,0 0.144639,-0.0071 v -0.248709 c -0.02999,0.0018 -0.04939,0.0035 -0.144639,0.0035 -0.15875,0 -0.183445,-0.02117 -0.183445,-0.118181 v -0.435681 h 0.3175 V 10.1168 h -0.3175 V 9.8663276 h -0.269875 z"
         id="path417" />
      <path
         d="M 23.491798,11.155731 V 10.1168 h -0.266347 v 0.608542 c 0,0.137583 -0.04586,0.19932 -0.261056,0.19932 -0.185208,0 -0.23107,-0.05115 -0.23107,-0.146403 V 10.1168 h -0.266347 v 0.714375 c 0,0.268112 0.156986,0.338667 0.405695,0.338667 0.195792,0 0.296333,-0.03351 0.361597,-0.127 l 0.0035,0.112889 z"
         id="path419" />
      <path
         d="m 24.433714,9.7657859 v 0.4427361 c -0.04057,-0.04233 -0.100542,-0.107597 -0.324556,-0.107597 -0.389819,0 -0.451555,0.183445 -0.451555,0.51682 0,0.296333 0.02117,0.553861 0.428625,0.553861 0.266347,0 0.326319,-0.07938 0.358069,-0.11818 l 0.0088,0.102305 h 0.248708 V 9.7657859 Z M 24.185006,10.33905 c 0.216958,0 0.254,0.03881 0.254,0.324556 0,0.245181 -0.05468,0.271639 -0.278695,0.271639 -0.225778,0 -0.236361,-0.06879 -0.236361,-0.32632 0,-0.231069 0.04586,-0.269875 0.261056,-0.269875 z"
         id="path421" />
      <path
         d="m 24.929366,9.7657859 v 0.2434171 h 0.278695 V 9.7657859 Z m 0.0053,0.3510141 v 1.038931 h 0.269875 V 10.1168 Z"
         id="path423" />
      <path
         d="m 25.952421,10.102689 c -0.45332,0 -0.530931,0.09878 -0.530931,0.560917 0,0.478014 0.167569,0.506236 0.559153,0.506236 0.437445,0 0.502709,-0.130528 0.502709,-0.553861 0,-0.463903 -0.149931,-0.513292 -0.530931,-0.513292 z m -0.264584,0.537986 c 0,-0.254 0.01235,-0.291042 0.250473,-0.291042 0.232833,0 0.27693,0.0053 0.27693,0.269876 0,0.273403 -0.01588,0.303389 -0.248708,0.303389 -0.259292,0 -0.278695,-0.01764 -0.278695,-0.282223 z"
         id="path425" />
      <path
         d="m 27.651046,10.444884 c -0.0018,-0.236362 -0.04057,-0.342195 -0.508001,-0.342195 -0.280458,0 -0.504472,0.02646 -0.504472,0.32632 0,0.125236 0.04233,0.264583 0.238125,0.282222 l 0.451556,0.0388 c 0.08467,0.0071 0.09701,0.03704 0.09701,0.0829 0,0.07056 0,0.109362 -0.257528,0.109362 -0.06526,0 -0.216959,0 -0.259292,-0.03881 -0.01764,-0.01587 -0.01764,-0.02469 -0.01764,-0.109361 h -0.257528 c 0,0.319264 0.107597,0.375708 0.536223,0.375708 0.298097,0 0.518583,-0.01411 0.518583,-0.329847 0,-0.22225 -0.09172,-0.292806 -0.266347,-0.306917 l -0.440973,-0.03351 c -0.0829,-0.0071 -0.08467,-0.0388 -0.08467,-0.06879 0,-0.09878 0.07937,-0.09878 0.246944,-0.09878 0.248709,0 0.248709,0.03528 0.246945,0.112889 z"
         id="path427" />
      <path
         d="m 28.376003,9.7657859 -0.576792,1.3899451 h 0.234598 l 0.576792,-1.3899451 z"
         id="path429" />
      <path
         d="m 29.446682,9.7516747 c -0.462139,-0.00706 -0.569736,-0.00882 -0.569736,0.3651253 h -0.192264 v 0.248708 h 0.192264 v 0.790223 h 0.268111 v -0.790223 h 0.301625 V 10.1168 h -0.301625 v -0.04233 c 0,-0.06703 0.04233,-0.082903 0.07937,-0.084667 0.04057,-0.00353 0.171097,-0.00176 0.22225,-0.00176 z m 0.125236,0.014111 v 1.3899451 h 0.269876 V 9.7657859 Z"
         id="path431" />
      <path
         d="m 30.589679,10.102689 c -0.453319,0 -0.530931,0.09878 -0.530931,0.560917 0,0.478014 0.16757,0.506236 0.559154,0.506236 0.437444,0 0.502708,-0.130528 0.502708,-0.553861 0,-0.463903 -0.14993,-0.513292 -0.530931,-0.513292 z m -0.264583,0.537986 c 0,-0.254 0.01235,-0.291042 0.250472,-0.291042 0.232834,0 0.276931,0.0053 0.276931,0.269876 0,0.273403 -0.01588,0.303389 -0.248709,0.303389 -0.259291,0 -0.278694,-0.01764 -0.278694,-0.282223 z"
         id="path433" />
      <path
         d="m 31.284653,10.1168 v 1.275292 H 31.551 v -0.328083 c 0.08467,0.09349 0.188736,0.105833 0.319264,0.105833 0.361598,0 0.458612,-0.139347 0.458612,-0.508 0,-0.347486 -0.03351,-0.559153 -0.433917,-0.559153 -0.241653,0 -0.296334,0.05821 -0.347487,0.11818 l -0.0053,-0.104069 z m 0.516819,0.227542 c 0.195792,0 0.259292,0.0194 0.259292,0.282222 0,0.238125 -0.01235,0.305153 -0.252236,0.305153 -0.194028,0 -0.261056,-0.02469 -0.261056,-0.268111 0,-0.266348 0.02822,-0.319264 0.254,-0.319264 z"
         id="path435" />
      <path
         d="m 32.492916,10.1168 v 1.275292 h 0.266347 v -0.328083 c 0.08467,0.09349 0.188737,0.105833 0.319265,0.105833 0.361597,0 0.458611,-0.139347 0.458611,-0.508 0,-0.347486 -0.03351,-0.559153 -0.433917,-0.559153 -0.241653,0 -0.296333,0.05821 -0.347486,0.11818 l -0.0053,-0.104069 z m 0.51682,0.227542 c 0.195792,0 0.259292,0.0194 0.259292,0.282222 0,0.238125 -0.01235,0.305153 -0.252237,0.305153 -0.194027,0 -0.261055,-0.02469 -0.261055,-0.268111 0,-0.266348 0.02822,-0.319264 0.254,-0.319264 z"
         id="path437" />
      <path
         d="m 34.720708,10.444884 c 0,-0.321028 -0.204611,-0.342195 -0.509764,-0.342195 -0.336903,0 -0.495653,0.05115 -0.499181,0.343958 h 0.261056 c -0.0035,-0.109361 0.03704,-0.11818 0.266347,-0.11818 0.174625,0 0.23107,0.0018 0.23107,0.09878 0,0.06879 -0.04057,0.07056 -0.06879,0.07232 l -0.45332,0.02646 c -0.261056,0.01588 -0.269875,0.215195 -0.269875,0.324556 0,0.310445 0.202847,0.319264 0.428625,0.319264 0.224014,0 0.310445,-0.01058 0.375709,-0.116416 0.0018,0.03175 0.0035,0.05644 0.01058,0.102305 h 0.250472 c -0.01058,-0.04586 -0.02293,-0.107597 -0.02293,-0.243417 z m -0.246945,0.342194 c 0,0.146403 -0.139347,0.156986 -0.301625,0.156986 -0.176389,0 -0.239889,-0.01058 -0.239889,-0.100541 0,-0.0441 0.0018,-0.09878 0.112889,-0.105834 l 0.329847,-0.0194 c 0.07232,-0.0035 0.08996,-0.02822 0.09878,-0.04233 z"
         id="path439" />
      <path
         d="m 35.574429,9.7657859 -0.705556,0.8307921 v 0.287514 h 0.821973 v 0.271639 h 0.287514 v -0.271639 h 0.225778 V 10.619509 H 35.97836 V 9.7657859 Z m 0.116417,0.8537231 h -0.525639 l 0.525639,-0.613834 z"
         id="path441" />
      <path
         d="m 37.606429,10.460759 c 0,-0.6155981 -0.118181,-0.7090843 -0.640292,-0.7090843 -0.51682,0 -0.626181,0.1111251 -0.626181,0.7090843 0,0.615597 0.119944,0.709083 0.640292,0.709083 0.518584,0 0.626181,-0.111125 0.626181,-0.709083 z m -0.633237,-0.444501 c 0.172862,0 0.276931,0.0088 0.312209,0.102306 0.02469,0.06703 0.02999,0.287514 0.02999,0.370417 0,0.384528 -0.03528,0.416278 -0.321028,0.416278 -0.333375,0 -0.363361,-0.01058 -0.363361,-0.440973 0,-0.432153 0.02999,-0.448028 0.342194,-0.448028 z"
         id="path443" />
    </g>
  </g>
</svg>
