<?xml version="1.0" encoding="UTF-8" standalone="no"?>
<!-- Created with Inkscape (http://www.inkscape.org/) -->

<svg
   width="34mm"
   height="6mm"
   viewBox="0 0 34 5.9999999"
   version="1.1"
   id="svg5"
   inkscape:version="1.2.2 (b0a84865, 2022-12-01)"
   sodipodi:docname="logosvg.svg"
   xmlns:inkscape="http://www.inkscape.org/namespaces/inkscape"
   xmlns:sodipodi="http://sodipodi.sourceforge.net/DTD/sodipodi-0.dtd"
   xmlns="http://www.w3.org/2000/svg"
   xmlns:svg="http://www.w3.org/2000/svg">
  <sodipodi:namedview
     id="namedview7"
     pagecolor="#505050"
     bordercolor="#eeeeee"
     borderopacity="1"
     inkscape:showpageshadow="0"
     inkscape:pageopacity="0"
     inkscape:pagecheckerboard="0"
     inkscape:deskcolor="#505050"
     inkscape:document-units="mm"
     showgrid="false"
     inkscape:zoom="5.9132449"
     inkscape:cx="48.112332"
     inkscape:cy="32.638594"
     inkscape:window-width="1579"
     inkscape:window-height="810"
     inkscape:window-x="0"
     inkscape:window-y="43"
     inkscape:window-maximized="0"
     inkscape:current-layer="layer1" />
  <defs
     id="defs2" />
  <g
     inkscape:label="Layer 1"
     inkscape:groupmode="layer"
     id="layer1">
    <g
       aria-label="Floppa40"
       id="text227"
       style="font-size:6.35px;font-family:'a-otf shin go pro';-inkscape-font-specification:'a-otf shin go pro';stroke-width:0.264583">
      <path
         d="M 0.15776761,0.27824258 V 5.2820425 H 1.2055176 v -1.91135 h 2.67335 v -0.95885 h -2.67335 V 1.2307426 h 2.78765 V 0.27824258 Z"
         id="path285" />
      <path
         d="M 4.6091143,0.27824258 V 5.2820425 h 0.97155 V 0.27824258 Z"
         id="path287" />
      <path
         d="m 8.2730556,1.4910926 c -1.63195,0 -1.91135,0.3556 -1.91135,2.0192999 0,1.72085 0.60325,1.82245 2.01295,1.82245 1.5747999,0 1.8097504,-0.4699 1.8097504,-1.9939 0,-1.6700499 -0.5397505,-1.8478499 -1.9113504,-1.8478499 z m -0.9525,1.9367499 c 0,-0.9144 0.04445,-1.04775 0.9017,-1.04775 0.8382,0 0.99695,0.01905 0.99695,0.97155 0,0.98425 -0.05715,1.0922 -0.89535,1.0922 -0.93345,0 -1.0033,-0.0635 -1.0033,-1.016 z"
         id="path289" />
      <path
         d="m 10.774952,1.5418926 v 4.5910499 h 0.95885 v -1.1811 c 0.3048,0.33655 0.67945,0.381 1.14935,0.381 1.30175,0 1.651,-0.50165 1.651,-1.8288 0,-1.25095 -0.12065,-2.0129499 -1.5621,-2.0129499 -0.86995,0 -1.0668,0.20955 -1.25095,0.42545 l -0.01905,-0.37465 z m 1.86055,0.8191499 c 0.70485,0 0.93345,0.06985 0.93345,1.016 0,0.85725 -0.04445,1.09855 -0.90805,1.09855 -0.6985,0 -0.9398,-0.0889 -0.9398,-0.9652 0,-0.95885 0.1016,-1.14935 0.9144,-1.14935 z"
         id="path291" />
      <path
         d="m 15.124699,1.5418926 v 4.5910499 h 0.95885 v -1.1811 c 0.3048,0.33655 0.67945,0.381 1.14935,0.381 1.30175,0 1.651,-0.50165 1.651,-1.8288 0,-1.25095 -0.12065,-2.0129499 -1.5621,-2.0129499 -0.86995,0 -1.0668,0.20955 -1.25095,0.42545 l -0.01905,-0.37465 z m 1.86055,0.8191499 c 0.70485,0 0.93345,0.06985 0.93345,1.016 0,0.85725 -0.04445,1.09855 -0.90805,1.09855 -0.6985,0 -0.9398,-0.0889 -0.9398,-0.9652 0,-0.95885 0.1016,-1.14935 0.9144,-1.14935 z"
         id="path293" />
      <path
         d="m 23.144745,2.7229925 c 0,-1.1556999 -0.7366,-1.2318999 -1.83515,-1.2318999 -1.21285,0 -1.78435,0.18415 -1.79705,1.2382499 h 0.9398 c -0.0127,-0.3937 0.13335,-0.42545 0.95885,-0.42545 0.62865,0 0.83185,0.00635 0.83185,0.3556 0,0.24765 -0.14605,0.254 -0.24765,0.26035 l -1.63195,0.09525 c -0.9398,0.05715 -0.97155,0.7747 -0.97155,1.1684 0,1.1176 0.73025,1.14935 1.54305,1.14935 0.80645,0 1.1176,-0.0381 1.35255,-0.4191 0.0064,0.1143 0.0127,0.2032 0.0381,0.3683 h 0.9017 c -0.0381,-0.1651 -0.08255,-0.38735 -0.08255,-0.8763 z m -0.889,1.2319 c 0,0.52705 -0.50165,0.56515 -1.08585,0.56515 -0.635,0 -0.8636,-0.0381 -0.8636,-0.36195 0,-0.15875 0.0064,-0.3556 0.4064,-0.381 l 1.18745,-0.06985 c 0.26035,-0.0127 0.32385,-0.1016 0.3556,-0.1524 z"
         id="path295" />
      <path
         d="m 26.218141,0.27824258 -2.54,2.99084992 v 1.03505 h 2.9591 v 0.9779 h 1.03505 v -0.9779 h 0.8128 v -0.9525 h -0.8128 V 0.27824258 Z m 0.4191,3.07339992 h -1.8923 l 1.8923,-2.2097999 z"
         id="path297" />
      <path
         d="m 33.533333,2.7801425 c 0,-2.21614993 -0.42545,-2.55269992 -2.30505,-2.55269992 -1.86055,0 -2.25425,0.40004999 -2.25425,2.55269992 0,2.21615 0.4318,2.5527 2.30505,2.5527 1.8669,0 2.25425,-0.40005 2.25425,-2.5527 z m -2.27965,-1.6001999 c 0.6223,0 0.99695,0.03175 1.12395,0.3683 0.0889,0.2413 0.10795,1.0350499 0.10795,1.3334999 0,1.3843 -0.127,1.4986 -1.1557,1.4986 -1.20015,0 -1.3081,-0.0381 -1.3081,-1.5875 0,-1.5557499 0.10795,-1.6128999 1.2319,-1.6128999 z"
         id="path299" />
    </g>
  </g>
</svg>
